<svg 
          id="Calque_1"
          data-name="Calque 1"
          xmlns="http://www.w3.org/2000/svg"
          viewBox="0 0 759.15 423.91"
        >
          <defs>
            <style>
              .cls-1 {
                fill: #003900;
              }
              .cls-2 {
                fill: #fff;
              }
              .cls-3 {
                fill: #64c601;
              }
            </style>
          </defs>
          <title>dc(LOGO)</title>
          <path
            d="M268.08,233.39a.71.71,0,0,1,.16.37q4.5,8.31,9.23,16.5c-3-6.89-6-13.81-8.27-19.28,0-.07-1.17-.61-1.79-1a8.45,8.45,0,0,0-1.23-.06c.51,1,1.05,1.93,1.57,2.91C267.86,233,268,233.22,268.08,233.39Z"
            transform="translate(-27.91 -69.28)"
          />
          <path d="M393.53,176.85" transform="translate(-27.91 -69.28)" />
          <path
            class="cls-1"
            d="M693.41,82S537.6,133.51,398.83,205c-4.36,2.25-62.37,30.25-103.17,59.14a23.8,23.8,0,0,1-3.46,12.38c-1.69-3.19-3.43-6.35-5.19-9.5l-1.44-2.56c-1.22-2.17-2.45-4.32-3.69-6.48-3.42-5.94-6.86-11.86-10.21-17.84l0,0c-.84-1.5-1.69-3-2.52-4.5-1-2.72-2.7-4.76-3-5.69.12,0,.63.06,1.09.11s.65.09,1,.15A47.57,47.57,0,0,1,280,235.73c35.52-18.62,158.29-82.52,188.13-91.34C468.09,144.39,629,73.17,693.41,82ZM194.21,290.29s.08,0,.1,0l-1.51-4.4c-1.69-1.42-107.25,70.83-107.25,70.83C-1.18,425.81,36.93,492,36.93,492,70.72,424.27,204,328.52,207.28,325l-12.59-33.23Zm68.45-59.76-.93.26c-7.61,1.76-24.5,5.89-34,10-5.41,2.33-10.44,5.21-14.55,9.54a37,37,0,0,0-9.77,18.86,4.3,4.3,0,0,0-.07.45c0,.22-.09.63.11.53,1.17-.65,2.47-1.4,3.54-1.85a25.15,25.15,0,0,1,4.42-1.24l-1.9,1.2a20.16,20.16,0,0,0-6.35,6.48,3.4,3.4,0,0,0-.57,1.66c-.39,8.66,1.88,18.26,5.06,26.29,0,.11,4.22-7.33,7.84-9.08.26-.12-1,1.23-1.83,2.45a30.63,30.63,0,0,0-3.82,10A4,4,0,0,0,210,308a87.58,87.58,0,0,0,5.59,9.47.27.27,0,0,0,.48-.07c2.06-6.76,13.71-17,13.5-16.74,0,0-9.3,12.79-10.51,19.73a3.56,3.56,0,0,0,.94,3.28,61.45,61.45,0,0,0,16.26,12.69,44.34,44.34,0,0,0,16.92,5.53,21.43,21.43,0,0,0,6.87-.08.28.28,0,0,0,.16-.44,1.79,1.79,0,0,0-.33-.34c-5.32-4-6.54-9.41-5.38-15.61a42.93,42.93,0,0,1,6.1-14.61c5.38-8.74,15.15-17.57,22.34-24.9,1.17-1.18,2.08-2.16,2.9-3.07h0c3.86-4.05,3.54-4.2,3.54-4.2Z"
            transform="translate(-27.91 -69.28)"
          />
          <path
            class="cls-2"
            d="M166.92,333.89s-6.52-9.6-15.57-5.28l9.57-5.35Z"
            transform="translate(-27.91 -69.28)"
          />
          <path
            class="cls-2"
            d="M154.89,312.66s6.52,9.6,15.57,5.28l-9.58,5.35Z"
            transform="translate(-27.91 -69.28)"
          />
          <path
            class="cls-2"
            d="M154.89,312.66s4.74,10.59-3.68,16l9.84-5.49Z"
            transform="translate(-27.91 -69.28)"
          />
          <path
            class="cls-2"
            d="M166.92,333.89s-4.75-10.59,3.68-16l-9.68,5.4Z"
            transform="translate(-27.91 -69.28)"
          />
          <path
            class="cls-2"
            d="M117.38,373.86s-6.4-10.12-15.28-5.57l9.4-5.64Z"
            transform="translate(-27.91 -69.28)"
          />
          <path
            class="cls-2"
            d="M105.57,351.46s6.4,10.13,15.28,5.57l-9.4,5.64Z"
            transform="translate(-27.91 -69.28)"
          />
          <path
            class="cls-2"
            d="M105.57,351.46s4.66,11.17-3.61,16.91l9.66-5.8Z"
            transform="translate(-27.91 -69.28)"
          />
          <path
            class="cls-2"
            d="M117.38,373.86S112.72,362.69,121,357l-9.49,5.7Z"
            transform="translate(-27.91 -69.28)"
          />
          <path
            class="cls-2"
            d="M152.67,356.79s-3.6-5.3-8.6-2.92l5.29-2.95Z"
            transform="translate(-27.91 -69.28)"
          />
          <path
            class="cls-2"
            d="M146,345.07s3.6,5.3,8.6,2.91l-5.29,2.95Z"
            transform="translate(-27.91 -69.28)"
          />
          <path
            class="cls-2"
            d="M146,345.07s2.62,5.84-2,8.84l5.44-3Z"
            transform="translate(-27.91 -69.28)"
          />
          <path
            class="cls-2"
            d="M152.67,356.79s-2.62-5.85,2-8.85l-5.34,3Z"
            transform="translate(-27.91 -69.28)"
          />
          <path
            class="cls-2"
            d="M98.25,399.14s-3.6-5.3-8.6-2.91l5.29-3Z"
            transform="translate(-27.91 -69.28)"
          />
          <path
            class="cls-2"
            d="M91.61,387.42s3.59,5.3,8.59,2.92l-5.29,3Z"
            transform="translate(-27.91 -69.28)"
          />
          <path
            class="cls-2"
            d="M91.61,387.42s2.61,5.85-2,8.85l5.44-3Z"
            transform="translate(-27.91 -69.28)"
          />
          <path
            class="cls-2"
            d="M98.25,399.14s-2.62-5.84,2-8.84l-5.34,3Z"
            transform="translate(-27.91 -69.28)"
          />
          <path
            class="cls-2"
            d="M188.69,329.61s-2.29-3.38-5.48-1.86l3.37-1.88Z"
            transform="translate(-27.91 -69.28)"
          />
          <path
            class="cls-2"
            d="M184.46,322.15s2.29,3.37,5.47,1.85l-3.36,1.88Z"
            transform="translate(-27.91 -69.28)"
          />
          <path
            class="cls-2"
            d="M184.46,322.15s1.67,3.72-1.29,5.63l3.45-1.93Z"
            transform="translate(-27.91 -69.28)"
          />
          <path
            class="cls-2"
            d="M188.69,329.61S187,325.89,190,324l-3.4,1.89Z"
            transform="translate(-27.91 -69.28)"
          />
          <path
            class="cls-2"
            d="M66,410.69s-2.29-3.37-5.47-1.86L63.87,407Z"
            transform="translate(-27.91 -69.28)"
          />
          <path
            class="cls-2"
            d="M61.75,403.23s2.29,3.37,5.47,1.86L63.86,407Z"
            transform="translate(-27.91 -69.28)"
          />
          <path
            class="cls-2"
            d="M61.75,403.23s1.67,3.72-1.29,5.63l3.46-1.93Z"
            transform="translate(-27.91 -69.28)"
          />
          <path
            class="cls-2"
            d="M66,410.69s-1.67-3.72,1.29-5.63l-3.4,1.9Z"
            transform="translate(-27.91 -69.28)"
          />
          <path
            class="cls-3"
            d="M785.68,408c-.66-.81-1.36-1.59-2.07-2.35a92.28,92.28,0,0,0-30.49-21.55A97.18,97.18,0,0,0,705.5,376c-12.4,1-24.18,3.87-35.31,9.77a112.31,112.31,0,0,1-43.55,12.92c-29.79,2.48-57.15-4.56-81.73-21.85-35.52-25-54.09-67.57-49-108.78,3.52-28.49,15.53-52.72,36.68-72.09,29.5-27,64.45-36.38,103.71-30.68,12.94,1.88,25,6.51,36.57,12.47a63.93,63.93,0,0,0,8.56,3.8c14.64,5,29.56,6.91,45,4.66,23.26-3.4,42.66-13.83,58.51-31a26.62,26.62,0,0,0,2-2.9c-.73-1-1.18-1.71-1.69-2.35A215.82,215.82,0,0,0,710.9,90.8a11.69,11.69,0,0,0-10.1-.38C658.94,106,617.27,122,576.07,139.24c-34.86,14.58-69.34,29.95-103.3,46.53q-30.67,15-60.65,31.28a9.82,9.82,0,0,0-5.18,6.51,214.57,214.57,0,0,0-8.06,53.74,202,202,0,0,0,3,39.27c7.63,44,27.63,81.57,58.85,113.22A209.75,209.75,0,0,0,516.34,470a214.28,214.28,0,0,0,87.72,23.08c6.46.28,12.94-.11,19.41-.28a203.43,203.43,0,0,0,34.81-3.91q66.35-13.38,113.88-61.63a154.12,154.12,0,0,0,14.9-17.3C786.38,409,786.07,408.43,785.68,408Z"
            transform="translate(-27.91 -69.28)"
          />
          <path
            class="cls-3"
            d="M119.79,309.67a3.66,3.66,0,0,1,.38-1.79c3.15-10.29,4-20.85,4-31.55q-.08-47.92,0-95.85v-6.59c17.06-9.35,51.74-14.13,81.59-5.67s55.76,30.18,66,47.8l84.1-42a22.75,22.75,0,0,0,2.42-1.21c-.4-.63-.84-1.33-1.28-2.05a197.92,197.92,0,0,0-30.26-38.19c-40.18-39.48-88.68-60-144.71-63A211.33,211.33,0,0,0,132.14,73c-25.49,4.72-49.52,13.24-71.83,26.51a237.58,237.58,0,0,0-29.13,20.57c-2.3,1.89-3.53,4-3.22,7a36.25,36.25,0,0,1,0,3.76v60.77Q28,279.3,28,367c0,2.47-.43,5,.55,7.34,1.61,1.12,3.52.6,5.46.73,13.32-12.1,28.2-22.81,42.79-33.21,8.43-6,16.67-12.3,25-18.46C107.72,319,114.54,315,119.79,309.67Z"
            transform="translate(-27.91 -69.28)"
          />
          <path
            class="cls-3"
            d="M384.84,241.57c-.29-1.65-.62-3-.93-4.15l-.18-.72c0-.1-.08-.19-.12-.29a16.36,16.36,0,0,0-1.19-3l-86.48,56.15c-.41.19-.8.4-1.2.59a5.71,5.71,0,0,1-.39.47c-.09.11-.19.22-.29.32a13.56,13.56,0,0,0-1.64,1.87.08.08,0,0,0,0,0h0a2.9,2.9,0,0,0-.5,1.72.72.72,0,0,1-.22.58c-.34,2.18-.65,4.21-1,6.22-.62,3.27-1.21,6.57-2.14,9.77-11.32,39-36.21,65.53-73.9,80.14-13.56,5.26-27.79,7.32-42.3,7.5-3,0-5.92,0-8.65,0a2.49,2.49,0,0,0-1.75.72c-4,3.84-7.78,7.29-11.33,10.95C137.21,424.25,123.74,438,110.68,452c-11.07,11.92-21.66,24.3-32.4,36.54l-.14.15A2.54,2.54,0,0,0,80,493q48.07,0,96.16,0a196.93,196.93,0,0,0,43.1-4.63c47.29-10.68,87.12-34.07,118.67-71.14,17.19-20.2,30.64-42.69,39.34-67.86,12.19-35.26,14.46-71.22,7.6-107.79C384.83,241.59,384.84,241.58,384.84,241.57Z"
            transform="translate(-27.91 -69.28)"
          />
          <path
            class="cls-3"
            d="M449.06,138.07c108.48-52.89,198-64,198-64C503.39,52.17,449.06,138.07,449.06,138.07Z"
            transform="translate(-27.91 -69.28)"
          />
</svg>