<svg
              width="273"
              height="168"
              viewBox="0 0 273 168"
              fill="none"
              xmlns="http://www.w3.org/2000/svg"
            >
              <path
                d="M5.256 13.18C4.368 13.18 3.588 13.048 2.916 12.784C2.244 12.52 1.596 12.1 0.972 11.524C0.888 11.44 0.816 11.35 0.756 11.254C0.708 11.146 0.684 11.032 0.684 10.912C0.684 10.72 0.75 10.552 0.882 10.408C1.026 10.252 1.2 10.174 1.404 10.174C1.572 10.174 1.722 10.24 1.854 10.372C2.322 10.828 2.826 11.176 3.366 11.416C3.918 11.656 4.536 11.776 5.22 11.776C5.748 11.776 6.222 11.692 6.642 11.524C7.074 11.356 7.416 11.122 7.668 10.822C7.92 10.522 8.046 10.174 8.046 9.778C8.034 9.298 7.89 8.902 7.614 8.59C7.35 8.278 6.978 8.02 6.498 7.816C6.03 7.6 5.484 7.42 4.86 7.276C4.308 7.144 3.798 6.982 3.33 6.79C2.874 6.598 2.478 6.364 2.142 6.088C1.806 5.8 1.542 5.458 1.35 5.062C1.17 4.654 1.08 4.18 1.08 3.64C1.08 2.956 1.26 2.356 1.62 1.84C1.98 1.324 2.478 0.927999 3.114 0.651999C3.75 0.363999 4.482 0.219999 5.31 0.219999C6.042 0.219999 6.732 0.339999 7.38 0.579999C8.04 0.819999 8.568 1.15 8.964 1.57C9.204 1.798 9.324 2.02 9.324 2.236C9.324 2.416 9.246 2.584 9.09 2.74C8.946 2.884 8.778 2.956 8.586 2.956C8.454 2.956 8.334 2.908 8.226 2.812C8.022 2.584 7.764 2.38 7.452 2.2C7.14 2.02 6.798 1.876 6.426 1.768C6.054 1.66 5.682 1.606 5.31 1.606C4.758 1.606 4.272 1.69 3.852 1.858C3.432 2.014 3.102 2.242 2.862 2.542C2.634 2.83 2.52 3.178 2.52 3.586C2.52 4.042 2.652 4.42 2.916 4.72C3.18 5.008 3.534 5.248 3.978 5.44C4.422 5.62 4.914 5.782 5.454 5.926C6.042 6.07 6.582 6.238 7.074 6.43C7.578 6.61 8.01 6.838 8.37 7.114C8.73 7.39 9.006 7.744 9.198 8.176C9.402 8.596 9.504 9.118 9.504 9.742C9.504 10.402 9.318 10.99 8.946 11.506C8.574 12.022 8.064 12.43 7.416 12.73C6.78 13.018 6.06 13.168 5.256 13.18ZM19.3359 3.604C19.5399 3.604 19.7079 3.676 19.8399 3.82C19.9839 3.952 20.0559 4.12 20.0559 4.324V12.262C20.0559 12.466 19.9839 12.64 19.8399 12.784C19.7079 12.928 19.5399 13 19.3359 13C19.1199 13 18.9459 12.928 18.8139 12.784C18.6819 12.64 18.6159 12.466 18.6159 12.262V10.552L18.9579 10.516C18.9579 10.78 18.8679 11.068 18.6879 11.38C18.5079 11.692 18.2619 11.986 17.9499 12.262C17.6379 12.526 17.2659 12.748 16.8339 12.928C16.4139 13.096 15.9579 13.18 15.4659 13.18C14.6499 13.18 13.9179 12.97 13.2699 12.55C12.6219 12.118 12.1059 11.536 11.7219 10.804C11.3499 10.072 11.1639 9.238 11.1639 8.302C11.1639 7.354 11.3499 6.52 11.7219 5.8C12.1059 5.068 12.6219 4.498 13.2699 4.09C13.9179 3.67 14.6379 3.46 15.4299 3.46C15.9459 3.46 16.4259 3.544 16.8699 3.712C17.3139 3.88 17.6979 4.108 18.0219 4.396C18.3579 4.684 18.6159 5.002 18.7959 5.35C18.9879 5.698 19.0839 6.046 19.0839 6.394L18.6159 6.286V4.324C18.6159 4.12 18.6819 3.952 18.8139 3.82C18.9459 3.676 19.1199 3.604 19.3359 3.604ZM15.6279 11.848C16.2279 11.848 16.7559 11.692 17.2119 11.38C17.6799 11.068 18.0399 10.648 18.2919 10.12C18.5559 9.58 18.6879 8.974 18.6879 8.302C18.6879 7.642 18.5559 7.048 18.2919 6.52C18.0399 5.98 17.6799 5.56 17.2119 5.26C16.7559 4.948 16.2279 4.792 15.6279 4.792C15.0399 4.792 14.5119 4.942 14.0439 5.242C13.5879 5.542 13.2279 5.956 12.9639 6.484C12.6999 7.012 12.5679 7.618 12.5679 8.302C12.5679 8.974 12.6939 9.58 12.9459 10.12C13.2099 10.648 13.5699 11.068 14.0259 11.38C14.4939 11.692 15.0279 11.848 15.6279 11.848ZM22.5136 3.532C22.6576 3.532 22.7956 3.574 22.9276 3.658C23.0596 3.73 23.1556 3.838 23.2156 3.982L26.2036 11.002L25.9156 11.146L28.9576 4C29.0896 3.676 29.3116 3.52 29.6236 3.532C29.8036 3.532 29.9596 3.592 30.0916 3.712C30.2236 3.832 30.2896 3.982 30.2896 4.162C30.2896 4.234 30.2776 4.306 30.2536 4.378C30.2416 4.438 30.2236 4.492 30.1996 4.54L26.7256 12.532C26.5936 12.832 26.3836 12.988 26.0956 13C25.9396 13.012 25.7896 12.982 25.6456 12.91C25.5136 12.826 25.4176 12.7 25.3576 12.532L21.8836 4.558C21.8596 4.51 21.8356 4.456 21.8116 4.396C21.7996 4.336 21.7936 4.264 21.7936 4.18C21.7936 4.024 21.8536 3.88 21.9736 3.748C22.1056 3.604 22.2856 3.532 22.5136 3.532ZM36.4485 13.18C35.4885 13.18 34.6485 12.976 33.9285 12.568C33.2085 12.16 32.6445 11.602 32.2365 10.894C31.8405 10.174 31.6425 9.346 31.6425 8.41C31.6425 7.366 31.8465 6.478 32.2545 5.746C32.6745 5.002 33.2145 4.438 33.8745 4.054C34.5465 3.658 35.2545 3.46 35.9985 3.46C36.5505 3.46 37.0845 3.562 37.6005 3.766C38.1165 3.97 38.5725 4.27 38.9685 4.666C39.3645 5.05 39.6825 5.518 39.9225 6.07C40.1625 6.61 40.2885 7.216 40.3005 7.888C40.3005 8.08 40.2285 8.242 40.0845 8.374C39.9405 8.506 39.7725 8.572 39.5805 8.572H32.4705L32.1465 7.33H39.0765L38.7885 7.582V7.186C38.7405 6.694 38.5725 6.274 38.2845 5.926C38.0085 5.566 37.6665 5.29 37.2585 5.098C36.8625 4.906 36.4425 4.81 35.9985 4.81C35.6385 4.81 35.2785 4.876 34.9185 5.008C34.5705 5.128 34.2525 5.332 33.9645 5.62C33.6885 5.896 33.4605 6.256 33.2805 6.7C33.1125 7.144 33.0285 7.678 33.0285 8.302C33.0285 8.998 33.1665 9.61 33.4425 10.138C33.7305 10.666 34.1265 11.086 34.6305 11.398C35.1345 11.698 35.7225 11.848 36.3945 11.848C36.8145 11.848 37.1805 11.794 37.4925 11.686C37.8045 11.578 38.0745 11.446 38.3025 11.29C38.5305 11.122 38.7225 10.954 38.8785 10.786C39.0345 10.678 39.1845 10.624 39.3285 10.624C39.5085 10.624 39.6525 10.684 39.7605 10.804C39.8805 10.924 39.9405 11.068 39.9405 11.236C39.9405 11.44 39.8445 11.62 39.6525 11.776C39.3165 12.148 38.8605 12.478 38.2845 12.766C37.7085 13.042 37.0965 13.18 36.4485 13.18ZM48.8078 12.262C48.8078 12.466 48.7358 12.64 48.5918 12.784C48.4598 12.928 48.2918 13 48.0878 13C47.8718 13 47.6978 12.928 47.5658 12.784C47.4338 12.64 47.3678 12.466 47.3678 12.262V4.27C47.3678 4.066 47.4338 3.898 47.5658 3.766C47.7098 3.622 47.8838 3.55 48.0878 3.55C48.2918 3.55 48.4598 3.622 48.5918 3.766C48.7358 3.898 48.8078 4.066 48.8078 4.27V12.262ZM48.0878 2.344C47.7878 2.344 47.5658 2.284 47.4218 2.164C47.2778 2.044 47.2058 1.858 47.2058 1.606V1.354C47.2058 1.102 47.2838 0.915999 47.4398 0.795999C47.5958 0.676 47.8178 0.616 48.1058 0.616C48.3938 0.616 48.6098 0.676 48.7538 0.795999C48.8978 0.915999 48.9698 1.102 48.9698 1.354V1.606C48.9698 1.858 48.8918 2.044 48.7358 2.164C48.5918 2.284 48.3758 2.344 48.0878 2.344ZM55.8405 3.55C56.6565 3.55 57.3165 3.76 57.8205 4.18C58.3365 4.588 58.6785 5.17 58.8465 5.926H58.5765L58.7025 5.602C58.8465 5.266 59.0925 4.942 59.4405 4.63C59.7885 4.318 60.1905 4.06 60.6465 3.856C61.1025 3.652 61.5765 3.55 62.0685 3.55C62.8605 3.55 63.4845 3.724 63.9405 4.072C64.3965 4.408 64.7205 4.864 64.9125 5.44C65.1165 6.004 65.2185 6.64 65.2185 7.348V12.262C65.2185 12.466 65.1465 12.64 65.0025 12.784C64.8705 12.928 64.7025 13 64.4985 13C64.2825 13 64.1085 12.928 63.9765 12.784C63.8445 12.64 63.7785 12.466 63.7785 12.262V7.384C63.7785 6.916 63.7065 6.496 63.5625 6.124C63.4305 5.74 63.2085 5.44 62.8965 5.224C62.5965 4.996 62.1825 4.882 61.6545 4.882C61.1625 4.882 60.7125 4.996 60.3045 5.224C59.8965 5.44 59.5725 5.74 59.3325 6.124C59.0925 6.496 58.9725 6.916 58.9725 7.384V12.262C58.9725 12.466 58.9065 12.64 58.7745 12.784C58.6425 12.928 58.4685 13 58.2525 13C58.0485 13 57.8745 12.928 57.7305 12.784C57.5985 12.64 57.5325 12.466 57.5325 12.262V7.33C57.5325 6.874 57.4665 6.466 57.3345 6.106C57.2145 5.734 57.0045 5.44 56.7045 5.224C56.4045 4.996 55.9905 4.882 55.4625 4.882C54.9825 4.882 54.5445 4.996 54.1485 5.224C53.7525 5.44 53.4345 5.734 53.1945 6.106C52.9545 6.466 52.8345 6.874 52.8345 7.33V12.262C52.8345 12.466 52.7625 12.64 52.6185 12.784C52.4865 12.928 52.3185 13 52.1145 13C51.9105 13 51.7365 12.928 51.5925 12.784C51.4605 12.64 51.3945 12.466 51.3945 12.262V4.414C51.3945 4.21 51.4605 4.042 51.5925 3.91C51.7365 3.766 51.9105 3.694 52.1145 3.694C52.3305 3.694 52.5045 3.766 52.6365 3.91C52.7685 4.042 52.8345 4.21 52.8345 4.414V5.782L52.4385 6.214C52.4865 5.902 52.6065 5.59 52.7985 5.278C53.0025 4.966 53.2605 4.678 53.5725 4.414C53.8845 4.15 54.2325 3.94 54.6165 3.784C55.0005 3.628 55.4085 3.55 55.8405 3.55ZM75.5508 3.604C75.7548 3.604 75.9228 3.676 76.0548 3.82C76.1988 3.952 76.2708 4.12 76.2708 4.324V12.262C76.2708 12.466 76.1988 12.64 76.0548 12.784C75.9228 12.928 75.7548 13 75.5508 13C75.3348 13 75.1608 12.928 75.0288 12.784C74.8968 12.64 74.8308 12.466 74.8308 12.262V10.552L75.1728 10.516C75.1728 10.78 75.0828 11.068 74.9028 11.38C74.7228 11.692 74.4768 11.986 74.1648 12.262C73.8528 12.526 73.4808 12.748 73.0488 12.928C72.6288 13.096 72.1728 13.18 71.6808 13.18C70.8648 13.18 70.1328 12.97 69.4848 12.55C68.8368 12.118 68.3208 11.536 67.9368 10.804C67.5648 10.072 67.3788 9.238 67.3788 8.302C67.3788 7.354 67.5648 6.52 67.9368 5.8C68.3208 5.068 68.8368 4.498 69.4848 4.09C70.1328 3.67 70.8528 3.46 71.6448 3.46C72.1608 3.46 72.6408 3.544 73.0848 3.712C73.5288 3.88 73.9128 4.108 74.2368 4.396C74.5728 4.684 74.8308 5.002 75.0108 5.35C75.2028 5.698 75.2988 6.046 75.2988 6.394L74.8308 6.286V4.324C74.8308 4.12 74.8968 3.952 75.0288 3.82C75.1608 3.676 75.3348 3.604 75.5508 3.604ZM71.8428 11.848C72.4428 11.848 72.9708 11.692 73.4268 11.38C73.8948 11.068 74.2548 10.648 74.5068 10.12C74.7708 9.58 74.9028 8.974 74.9028 8.302C74.9028 7.642 74.7708 7.048 74.5068 6.52C74.2548 5.98 73.8948 5.56 73.4268 5.26C72.9708 4.948 72.4428 4.792 71.8428 4.792C71.2548 4.792 70.7268 4.942 70.2588 5.242C69.8028 5.542 69.4428 5.956 69.1788 6.484C68.9148 7.012 68.7828 7.618 68.7828 8.302C68.7828 8.974 68.9088 9.58 69.1608 10.12C69.4248 10.648 69.7848 11.068 70.2408 11.38C70.7088 11.692 71.2428 11.848 71.8428 11.848ZM82.8454 3.46C83.3614 3.46 83.8414 3.55 84.2854 3.73C84.7294 3.898 85.1134 4.12 85.4374 4.396C85.7734 4.672 86.0314 4.96 86.2114 5.26C86.4034 5.56 86.4994 5.842 86.4994 6.106L86.1574 5.89V4.324C86.1574 4.12 86.2234 3.952 86.3554 3.82C86.4874 3.676 86.6614 3.604 86.8774 3.604C87.0814 3.604 87.2494 3.676 87.3814 3.82C87.5254 3.952 87.5974 4.12 87.5974 4.324V12.208C87.5974 13.192 87.3874 14.008 86.9674 14.656C86.5594 15.304 86.0074 15.79 85.3114 16.114C84.6154 16.438 83.8354 16.6 82.9714 16.6C82.6114 16.6 82.2154 16.552 81.7834 16.456C81.3514 16.36 80.9674 16.24 80.6314 16.096C80.2954 15.964 80.0794 15.826 79.9834 15.682C79.8034 15.562 79.6894 15.424 79.6414 15.268C79.6054 15.124 79.6354 14.986 79.7314 14.854C79.8394 14.686 79.9774 14.602 80.1454 14.602C80.3254 14.602 80.5474 14.656 80.8114 14.764C80.9194 14.8 81.0874 14.86 81.3154 14.944C81.5554 15.028 81.8194 15.1 82.1074 15.16C82.4074 15.232 82.7014 15.268 82.9894 15.268C84.0094 15.268 84.7894 14.998 85.3294 14.458C85.8814 13.93 86.1574 13.228 86.1574 12.352V10.678L86.3554 10.768C86.2834 11.104 86.1334 11.416 85.9054 11.704C85.6894 11.992 85.4194 12.25 85.0954 12.478C84.7834 12.694 84.4354 12.868 84.0514 13C83.6674 13.12 83.2774 13.18 82.8814 13.18C82.0414 13.18 81.2854 12.97 80.6134 12.55C79.9414 12.13 79.4074 11.554 79.0114 10.822C78.6274 10.09 78.4354 9.256 78.4354 8.32C78.4354 7.372 78.6274 6.532 79.0114 5.8C79.4074 5.068 79.9354 4.498 80.5954 4.09C81.2674 3.67 82.0174 3.46 82.8454 3.46ZM83.0254 4.792C82.4134 4.792 81.8614 4.948 81.3694 5.26C80.8894 5.56 80.5114 5.974 80.2354 6.502C79.9714 7.03 79.8394 7.636 79.8394 8.32C79.8394 8.98 79.9714 9.58 80.2354 10.12C80.5114 10.648 80.8894 11.068 81.3694 11.38C81.8614 11.692 82.4134 11.848 83.0254 11.848C83.6494 11.848 84.2014 11.698 84.6814 11.398C85.1614 11.086 85.5394 10.666 85.8154 10.138C86.0914 9.61 86.2294 9.004 86.2294 8.32C86.2294 7.624 86.0914 7.012 85.8154 6.484C85.5394 5.956 85.1614 5.542 84.6814 5.242C84.2014 4.942 83.6494 4.792 83.0254 4.792ZM94.2102 13.18C93.2502 13.18 92.4102 12.976 91.6902 12.568C90.9702 12.16 90.4062 11.602 89.9982 10.894C89.6022 10.174 89.4042 9.346 89.4042 8.41C89.4042 7.366 89.6082 6.478 90.0162 5.746C90.4362 5.002 90.9762 4.438 91.6362 4.054C92.3082 3.658 93.0162 3.46 93.7602 3.46C94.3122 3.46 94.8462 3.562 95.3622 3.766C95.8782 3.97 96.3342 4.27 96.7302 4.666C97.1262 5.05 97.4442 5.518 97.6842 6.07C97.9242 6.61 98.0502 7.216 98.0622 7.888C98.0622 8.08 97.9902 8.242 97.8462 8.374C97.7022 8.506 97.5342 8.572 97.3422 8.572H90.2322L89.9082 7.33H96.8382L96.5502 7.582V7.186C96.5022 6.694 96.3342 6.274 96.0462 5.926C95.7702 5.566 95.4282 5.29 95.0202 5.098C94.6242 4.906 94.2042 4.81 93.7602 4.81C93.4002 4.81 93.0402 4.876 92.6802 5.008C92.3322 5.128 92.0142 5.332 91.7262 5.62C91.4502 5.896 91.2222 6.256 91.0422 6.7C90.8742 7.144 90.7902 7.678 90.7902 8.302C90.7902 8.998 90.9282 9.61 91.2042 10.138C91.4922 10.666 91.8882 11.086 92.3922 11.398C92.8962 11.698 93.4842 11.848 94.1562 11.848C94.5762 11.848 94.9422 11.794 95.2542 11.686C95.5662 11.578 95.8362 11.446 96.0642 11.29C96.2922 11.122 96.4842 10.954 96.6402 10.786C96.7962 10.678 96.9462 10.624 97.0902 10.624C97.2702 10.624 97.4142 10.684 97.5222 10.804C97.6422 10.924 97.7022 11.068 97.7022 11.236C97.7022 11.44 97.6062 11.62 97.4142 11.776C97.0782 12.148 96.6222 12.478 96.0462 12.766C95.4702 13.042 94.8582 13.18 94.2102 13.18Z"
                fill="#A6AE9D"
              />
              <path
                d="M5.804 32.4C6.68 32.4 7.448 32.568 8.108 32.904C8.78 33.228 9.338 33.684 9.782 34.272C10.226 34.86 10.556 35.538 10.772 36.306C11 37.062 11.114 37.86 11.114 38.7C11.114 39.852 10.916 40.908 10.52 41.868C10.124 42.816 9.536 43.578 8.756 44.154C7.976 44.718 6.992 45 5.804 45H1.304C1.1 45 0.926 44.928 0.782 44.784C0.65 44.64 0.584 44.466 0.584 44.262V33.12C0.584 32.916 0.65 32.748 0.782 32.616C0.926 32.472 1.1 32.4 1.304 32.4H5.804ZM5.624 43.596C6.548 43.596 7.298 43.374 7.874 42.93C8.462 42.486 8.888 41.892 9.152 41.148C9.428 40.404 9.566 39.588 9.566 38.7C9.566 38.052 9.488 37.434 9.332 36.846C9.188 36.246 8.954 35.718 8.63 35.262C8.318 34.806 7.91 34.446 7.406 34.182C6.914 33.918 6.32 33.786 5.624 33.786H1.934L2.078 33.642V43.776L1.97 43.596H5.624ZM17.6945 45.18C16.7345 45.18 15.8945 44.976 15.1745 44.568C14.4545 44.16 13.8905 43.602 13.4825 42.894C13.0865 42.174 12.8885 41.346 12.8885 40.41C12.8885 39.366 13.0925 38.478 13.5005 37.746C13.9205 37.002 14.4605 36.438 15.1205 36.054C15.7925 35.658 16.5005 35.46 17.2445 35.46C17.7965 35.46 18.3305 35.562 18.8465 35.766C19.3625 35.97 19.8185 36.27 20.2145 36.666C20.6105 37.05 20.9285 37.518 21.1685 38.07C21.4085 38.61 21.5345 39.216 21.5465 39.888C21.5465 40.08 21.4745 40.242 21.3305 40.374C21.1865 40.506 21.0185 40.572 20.8265 40.572H13.7165L13.3925 39.33H20.3225L20.0345 39.582V39.186C19.9865 38.694 19.8185 38.274 19.5305 37.926C19.2545 37.566 18.9125 37.29 18.5045 37.098C18.1085 36.906 17.6885 36.81 17.2445 36.81C16.8845 36.81 16.5245 36.876 16.1645 37.008C15.8165 37.128 15.4985 37.332 15.2105 37.62C14.9345 37.896 14.7065 38.256 14.5265 38.7C14.3585 39.144 14.2745 39.678 14.2745 40.302C14.2745 40.998 14.4125 41.61 14.6885 42.138C14.9765 42.666 15.3725 43.086 15.8765 43.398C16.3805 43.698 16.9685 43.848 17.6405 43.848C18.0605 43.848 18.4265 43.794 18.7385 43.686C19.0505 43.578 19.3205 43.446 19.5485 43.29C19.7765 43.122 19.9685 42.954 20.1245 42.786C20.2805 42.678 20.4305 42.624 20.5745 42.624C20.7545 42.624 20.8985 42.684 21.0065 42.804C21.1265 42.924 21.1865 43.068 21.1865 43.236C21.1865 43.44 21.0905 43.62 20.8985 43.776C20.5625 44.148 20.1065 44.478 19.5305 44.766C18.9545 45.042 18.3425 45.18 17.6945 45.18ZM25.2949 44.262C25.2949 44.466 25.2229 44.64 25.0789 44.784C24.9349 44.928 24.7609 45 24.5569 45C24.3529 45 24.1849 44.928 24.0529 44.784C23.9209 44.64 23.8549 44.466 23.8549 44.262V32.4C23.8549 32.196 23.9209 32.028 24.0529 31.896C24.1969 31.752 24.3709 31.68 24.5749 31.68C24.7909 31.68 24.9649 31.752 25.0969 31.896C25.2289 32.028 25.2949 32.196 25.2949 32.4V44.262ZM32.2141 45.18C31.2541 45.18 30.4141 44.976 29.6941 44.568C28.9741 44.16 28.4101 43.602 28.0021 42.894C27.6061 42.174 27.4081 41.346 27.4081 40.41C27.4081 39.366 27.6121 38.478 28.0201 37.746C28.4401 37.002 28.9801 36.438 29.6401 36.054C30.3121 35.658 31.0201 35.46 31.7641 35.46C32.3161 35.46 32.8501 35.562 33.3661 35.766C33.8821 35.97 34.3381 36.27 34.7341 36.666C35.1301 37.05 35.4481 37.518 35.6881 38.07C35.9281 38.61 36.0541 39.216 36.0661 39.888C36.0661 40.08 35.9941 40.242 35.8501 40.374C35.7061 40.506 35.5381 40.572 35.3461 40.572H28.2361L27.9121 39.33H34.8421L34.5541 39.582V39.186C34.5061 38.694 34.3381 38.274 34.0501 37.926C33.7741 37.566 33.4321 37.29 33.0241 37.098C32.6281 36.906 32.2081 36.81 31.7641 36.81C31.4041 36.81 31.0441 36.876 30.6841 37.008C30.3361 37.128 30.0181 37.332 29.7301 37.62C29.4541 37.896 29.2261 38.256 29.0461 38.7C28.8781 39.144 28.7941 39.678 28.7941 40.302C28.7941 40.998 28.9321 41.61 29.2081 42.138C29.4961 42.666 29.8921 43.086 30.3961 43.398C30.9001 43.698 31.4881 43.848 32.1601 43.848C32.5801 43.848 32.9461 43.794 33.2581 43.686C33.5701 43.578 33.8401 43.446 34.0681 43.29C34.2961 43.122 34.4881 42.954 34.6441 42.786C34.8001 42.678 34.9501 42.624 35.0941 42.624C35.2741 42.624 35.4181 42.684 35.5261 42.804C35.6461 42.924 35.7061 43.068 35.7061 43.236C35.7061 43.44 35.6101 43.62 35.4181 43.776C35.0821 44.148 34.6261 44.478 34.0501 44.766C33.4741 45.042 32.8621 45.18 32.2141 45.18ZM37.8704 35.748H42.1004C42.2924 35.748 42.4484 35.814 42.5684 35.946C42.7004 36.078 42.7664 36.234 42.7664 36.414C42.7664 36.606 42.7004 36.768 42.5684 36.9C42.4484 37.02 42.2924 37.08 42.1004 37.08H37.8704C37.6904 37.08 37.5344 37.014 37.4024 36.882C37.2704 36.75 37.2044 36.588 37.2044 36.396C37.2044 36.216 37.2704 36.066 37.4024 35.946C37.5344 35.814 37.6904 35.748 37.8704 35.748ZM39.7604 33.3C39.9644 33.3 40.1324 33.372 40.2644 33.516C40.3964 33.648 40.4624 33.816 40.4624 34.02V42.714C40.4624 43.002 40.5044 43.218 40.5884 43.362C40.6724 43.506 40.7804 43.608 40.9124 43.668C41.0564 43.716 41.1944 43.74 41.3264 43.74C41.4464 43.74 41.5484 43.722 41.6324 43.686C41.7284 43.638 41.8364 43.614 41.9564 43.614C42.0764 43.614 42.1844 43.674 42.2804 43.794C42.3884 43.902 42.4424 44.046 42.4424 44.226C42.4424 44.442 42.3164 44.628 42.0644 44.784C41.8124 44.928 41.5304 45 41.2184 45C41.0504 45 40.8404 44.988 40.5884 44.964C40.3484 44.94 40.1084 44.862 39.8684 44.73C39.6284 44.598 39.4244 44.382 39.2564 44.082C39.1004 43.77 39.0224 43.338 39.0224 42.786V34.02C39.0224 33.816 39.0944 33.648 39.2384 33.516C39.3824 33.372 39.5564 33.3 39.7604 33.3ZM48.9836 45.18C48.0236 45.18 47.1836 44.976 46.4636 44.568C45.7436 44.16 45.1796 43.602 44.7716 42.894C44.3756 42.174 44.1776 41.346 44.1776 40.41C44.1776 39.366 44.3816 38.478 44.7896 37.746C45.2096 37.002 45.7496 36.438 46.4096 36.054C47.0816 35.658 47.7896 35.46 48.5336 35.46C49.0856 35.46 49.6196 35.562 50.1356 35.766C50.6516 35.97 51.1076 36.27 51.5036 36.666C51.8996 37.05 52.2176 37.518 52.4576 38.07C52.6976 38.61 52.8236 39.216 52.8356 39.888C52.8356 40.08 52.7636 40.242 52.6196 40.374C52.4756 40.506 52.3076 40.572 52.1156 40.572H45.0056L44.6816 39.33H51.6116L51.3236 39.582V39.186C51.2756 38.694 51.1076 38.274 50.8196 37.926C50.5436 37.566 50.2016 37.29 49.7936 37.098C49.3976 36.906 48.9776 36.81 48.5336 36.81C48.1736 36.81 47.8136 36.876 47.4536 37.008C47.1056 37.128 46.7876 37.332 46.4996 37.62C46.2236 37.896 45.9956 38.256 45.8156 38.7C45.6476 39.144 45.5636 39.678 45.5636 40.302C45.5636 40.998 45.7016 41.61 45.9776 42.138C46.2656 42.666 46.6616 43.086 47.1656 43.398C47.6696 43.698 48.2576 43.848 48.9296 43.848C49.3496 43.848 49.7156 43.794 50.0276 43.686C50.3396 43.578 50.6096 43.446 50.8376 43.29C51.0656 43.122 51.2576 42.954 51.4136 42.786C51.5696 42.678 51.7196 42.624 51.8636 42.624C52.0436 42.624 52.1876 42.684 52.2956 42.804C52.4156 42.924 52.4756 43.068 52.4756 43.236C52.4756 43.44 52.3796 43.62 52.1876 43.776C51.8516 44.148 51.3956 44.478 50.8196 44.766C50.2436 45.042 49.6316 45.18 48.9836 45.18ZM61.343 44.262C61.343 44.466 61.271 44.64 61.127 44.784C60.995 44.928 60.827 45 60.623 45C60.407 45 60.233 44.928 60.101 44.784C59.969 44.64 59.903 44.466 59.903 44.262V36.27C59.903 36.066 59.969 35.898 60.101 35.766C60.245 35.622 60.419 35.55 60.623 35.55C60.827 35.55 60.995 35.622 61.127 35.766C61.271 35.898 61.343 36.066 61.343 36.27V44.262ZM60.623 34.344C60.323 34.344 60.101 34.284 59.957 34.164C59.813 34.044 59.741 33.858 59.741 33.606V33.354C59.741 33.102 59.819 32.916 59.975 32.796C60.131 32.676 60.353 32.616 60.641 32.616C60.929 32.616 61.145 32.676 61.289 32.796C61.433 32.916 61.505 33.102 61.505 33.354V33.606C61.505 33.858 61.427 34.044 61.271 34.164C61.127 34.284 60.911 34.344 60.623 34.344ZM68.3757 35.55C69.1917 35.55 69.8517 35.76 70.3557 36.18C70.8717 36.588 71.2137 37.17 71.3817 37.926H71.1117L71.2377 37.602C71.3817 37.266 71.6277 36.942 71.9757 36.63C72.3237 36.318 72.7257 36.06 73.1817 35.856C73.6377 35.652 74.1117 35.55 74.6037 35.55C75.3957 35.55 76.0197 35.724 76.4757 36.072C76.9317 36.408 77.2557 36.864 77.4477 37.44C77.6517 38.004 77.7537 38.64 77.7537 39.348V44.262C77.7537 44.466 77.6817 44.64 77.5377 44.784C77.4057 44.928 77.2377 45 77.0337 45C76.8177 45 76.6437 44.928 76.5117 44.784C76.3797 44.64 76.3137 44.466 76.3137 44.262V39.384C76.3137 38.916 76.2417 38.496 76.0977 38.124C75.9657 37.74 75.7437 37.44 75.4317 37.224C75.1317 36.996 74.7177 36.882 74.1897 36.882C73.6977 36.882 73.2477 36.996 72.8397 37.224C72.4317 37.44 72.1077 37.74 71.8677 38.124C71.6277 38.496 71.5077 38.916 71.5077 39.384V44.262C71.5077 44.466 71.4417 44.64 71.3097 44.784C71.1777 44.928 71.0037 45 70.7877 45C70.5837 45 70.4097 44.928 70.2657 44.784C70.1337 44.64 70.0677 44.466 70.0677 44.262V39.33C70.0677 38.874 70.0017 38.466 69.8697 38.106C69.7497 37.734 69.5397 37.44 69.2397 37.224C68.9397 36.996 68.5257 36.882 67.9977 36.882C67.5177 36.882 67.0797 36.996 66.6837 37.224C66.2877 37.44 65.9697 37.734 65.7297 38.106C65.4897 38.466 65.3697 38.874 65.3697 39.33V44.262C65.3697 44.466 65.2977 44.64 65.1537 44.784C65.0217 44.928 64.8537 45 64.6497 45C64.4457 45 64.2717 44.928 64.1277 44.784C63.9957 44.64 63.9297 44.466 63.9297 44.262V36.414C63.9297 36.21 63.9957 36.042 64.1277 35.91C64.2717 35.766 64.4457 35.694 64.6497 35.694C64.8657 35.694 65.0397 35.766 65.1717 35.91C65.3037 36.042 65.3697 36.21 65.3697 36.414V37.782L64.9737 38.214C65.0217 37.902 65.1417 37.59 65.3337 37.278C65.5377 36.966 65.7957 36.678 66.1077 36.414C66.4197 36.15 66.7677 35.94 67.1517 35.784C67.5357 35.628 67.9437 35.55 68.3757 35.55ZM88.0859 35.604C88.2899 35.604 88.4579 35.676 88.5899 35.82C88.7339 35.952 88.8059 36.12 88.8059 36.324V44.262C88.8059 44.466 88.7339 44.64 88.5899 44.784C88.4579 44.928 88.2899 45 88.0859 45C87.8699 45 87.6959 44.928 87.5639 44.784C87.4319 44.64 87.3659 44.466 87.3659 44.262V42.552L87.7079 42.516C87.7079 42.78 87.6179 43.068 87.4379 43.38C87.2579 43.692 87.0119 43.986 86.6999 44.262C86.3879 44.526 86.0159 44.748 85.5839 44.928C85.1639 45.096 84.7079 45.18 84.2159 45.18C83.3999 45.18 82.6679 44.97 82.0199 44.55C81.3719 44.118 80.8559 43.536 80.4719 42.804C80.0999 42.072 79.9139 41.238 79.9139 40.302C79.9139 39.354 80.0999 38.52 80.4719 37.8C80.8559 37.068 81.3719 36.498 82.0199 36.09C82.6679 35.67 83.3879 35.46 84.1799 35.46C84.6959 35.46 85.1759 35.544 85.6199 35.712C86.0639 35.88 86.4479 36.108 86.7719 36.396C87.1079 36.684 87.3659 37.002 87.5459 37.35C87.7379 37.698 87.8339 38.046 87.8339 38.394L87.3659 38.286V36.324C87.3659 36.12 87.4319 35.952 87.5639 35.82C87.6959 35.676 87.8699 35.604 88.0859 35.604ZM84.3779 43.848C84.9779 43.848 85.5059 43.692 85.9619 43.38C86.4299 43.068 86.7899 42.648 87.0419 42.12C87.3059 41.58 87.4379 40.974 87.4379 40.302C87.4379 39.642 87.3059 39.048 87.0419 38.52C86.7899 37.98 86.4299 37.56 85.9619 37.26C85.5059 36.948 84.9779 36.792 84.3779 36.792C83.7899 36.792 83.2619 36.942 82.7939 37.242C82.3379 37.542 81.9779 37.956 81.7139 38.484C81.4499 39.012 81.3179 39.618 81.3179 40.302C81.3179 40.974 81.4439 41.58 81.6959 42.12C81.9599 42.648 82.3199 43.068 82.7759 43.38C83.2439 43.692 83.7779 43.848 84.3779 43.848ZM95.3806 35.46C95.8966 35.46 96.3766 35.55 96.8206 35.73C97.2646 35.898 97.6486 36.12 97.9726 36.396C98.3086 36.672 98.5666 36.96 98.7466 37.26C98.9386 37.56 99.0346 37.842 99.0346 38.106L98.6926 37.89V36.324C98.6926 36.12 98.7586 35.952 98.8906 35.82C99.0226 35.676 99.1966 35.604 99.4126 35.604C99.6166 35.604 99.7846 35.676 99.9166 35.82C100.061 35.952 100.133 36.12 100.133 36.324V44.208C100.133 45.192 99.9226 46.008 99.5026 46.656C99.0946 47.304 98.5426 47.79 97.8466 48.114C97.1506 48.438 96.3706 48.6 95.5066 48.6C95.1466 48.6 94.7506 48.552 94.3186 48.456C93.8866 48.36 93.5026 48.24 93.1666 48.096C92.8306 47.964 92.6146 47.826 92.5186 47.682C92.3386 47.562 92.2246 47.424 92.1766 47.268C92.1406 47.124 92.1706 46.986 92.2666 46.854C92.3746 46.686 92.5126 46.602 92.6806 46.602C92.8606 46.602 93.0826 46.656 93.3466 46.764C93.4546 46.8 93.6226 46.86 93.8506 46.944C94.0906 47.028 94.3546 47.1 94.6426 47.16C94.9426 47.232 95.2366 47.268 95.5246 47.268C96.5446 47.268 97.3246 46.998 97.8646 46.458C98.4166 45.93 98.6926 45.228 98.6926 44.352V42.678L98.8906 42.768C98.8186 43.104 98.6686 43.416 98.4406 43.704C98.2246 43.992 97.9546 44.25 97.6306 44.478C97.3186 44.694 96.9706 44.868 96.5866 45C96.2026 45.12 95.8126 45.18 95.4166 45.18C94.5766 45.18 93.8206 44.97 93.1486 44.55C92.4766 44.13 91.9426 43.554 91.5466 42.822C91.1626 42.09 90.9706 41.256 90.9706 40.32C90.9706 39.372 91.1626 38.532 91.5466 37.8C91.9426 37.068 92.4706 36.498 93.1306 36.09C93.8026 35.67 94.5526 35.46 95.3806 35.46ZM95.5606 36.792C94.9486 36.792 94.3966 36.948 93.9046 37.26C93.4246 37.56 93.0466 37.974 92.7706 38.502C92.5066 39.03 92.3746 39.636 92.3746 40.32C92.3746 40.98 92.5066 41.58 92.7706 42.12C93.0466 42.648 93.4246 43.068 93.9046 43.38C94.3966 43.692 94.9486 43.848 95.5606 43.848C96.1846 43.848 96.7366 43.698 97.2166 43.398C97.6966 43.086 98.0746 42.666 98.3506 42.138C98.6266 41.61 98.7646 41.004 98.7646 40.32C98.7646 39.624 98.6266 39.012 98.3506 38.484C98.0746 37.956 97.6966 37.542 97.2166 37.242C96.7366 36.942 96.1846 36.792 95.5606 36.792ZM106.745 45.18C105.785 45.18 104.945 44.976 104.225 44.568C103.505 44.16 102.941 43.602 102.533 42.894C102.137 42.174 101.939 41.346 101.939 40.41C101.939 39.366 102.143 38.478 102.551 37.746C102.971 37.002 103.511 36.438 104.171 36.054C104.843 35.658 105.551 35.46 106.295 35.46C106.847 35.46 107.381 35.562 107.897 35.766C108.413 35.97 108.869 36.27 109.265 36.666C109.661 37.05 109.979 37.518 110.219 38.07C110.459 38.61 110.585 39.216 110.597 39.888C110.597 40.08 110.525 40.242 110.381 40.374C110.237 40.506 110.069 40.572 109.877 40.572H102.767L102.443 39.33H109.373L109.085 39.582V39.186C109.037 38.694 108.869 38.274 108.581 37.926C108.305 37.566 107.963 37.29 107.555 37.098C107.159 36.906 106.739 36.81 106.295 36.81C105.935 36.81 105.575 36.876 105.215 37.008C104.867 37.128 104.549 37.332 104.261 37.62C103.985 37.896 103.757 38.256 103.577 38.7C103.409 39.144 103.325 39.678 103.325 40.302C103.325 40.998 103.463 41.61 103.739 42.138C104.027 42.666 104.423 43.086 104.927 43.398C105.431 43.698 106.019 43.848 106.691 43.848C107.111 43.848 107.477 43.794 107.789 43.686C108.101 43.578 108.371 43.446 108.599 43.29C108.827 43.122 109.019 42.954 109.175 42.786C109.331 42.678 109.481 42.624 109.625 42.624C109.805 42.624 109.949 42.684 110.057 42.804C110.177 42.924 110.237 43.068 110.237 43.236C110.237 43.44 110.141 43.62 109.949 43.776C109.613 44.148 109.157 44.478 108.581 44.766C108.005 45.042 107.393 45.18 106.745 45.18Z"
                fill="#A6AE9D"
              />
              <path
                d="M10.512 64.382C10.716 64.382 10.884 64.454 11.016 64.598C11.148 64.742 11.214 64.916 11.214 65.12V72.266C11.214 73.19 10.998 74.018 10.566 74.75C10.146 75.482 9.576 76.064 8.856 76.496C8.136 76.916 7.32 77.126 6.408 77.126C5.484 77.126 4.656 76.916 3.924 76.496C3.204 76.064 2.634 75.482 2.214 74.75C1.794 74.018 1.584 73.19 1.584 72.266V65.12C1.584 64.916 1.65 64.742 1.782 64.598C1.926 64.454 2.112 64.382 2.34 64.382C2.532 64.382 2.7 64.454 2.844 64.598C3 64.742 3.078 64.916 3.078 65.12V72.266C3.078 72.926 3.228 73.514 3.528 74.03C3.828 74.546 4.23 74.954 4.734 75.254C5.25 75.542 5.808 75.686 6.408 75.686C7.02 75.686 7.584 75.542 8.1 75.254C8.616 74.954 9.03 74.546 9.342 74.03C9.666 73.514 9.828 72.926 9.828 72.266V65.12C9.828 64.916 9.888 64.742 10.008 64.598C10.128 64.454 10.296 64.382 10.512 64.382ZM18.7373 67.46C19.5533 67.46 20.1953 67.628 20.6633 67.964C21.1313 68.3 21.4613 68.75 21.6533 69.314C21.8573 69.878 21.9593 70.508 21.9593 71.204V76.262C21.9593 76.466 21.8873 76.64 21.7433 76.784C21.6113 76.928 21.4433 77 21.2393 77C21.0353 77 20.8613 76.928 20.7173 76.784C20.5853 76.64 20.5193 76.466 20.5193 76.262V71.24C20.5193 70.784 20.4473 70.376 20.3033 70.016C20.1713 69.644 19.9433 69.35 19.6193 69.134C19.3073 68.906 18.8753 68.792 18.3233 68.792C17.8193 68.792 17.3573 68.906 16.9373 69.134C16.5173 69.35 16.1813 69.644 15.9293 70.016C15.6773 70.376 15.5513 70.784 15.5513 71.24V76.262C15.5513 76.466 15.4793 76.64 15.3353 76.784C15.2033 76.928 15.0353 77 14.8313 77C14.6273 77 14.4533 76.928 14.3093 76.784C14.1773 76.64 14.1113 76.466 14.1113 76.262V68.414C14.1113 68.21 14.1773 68.042 14.3093 67.91C14.4533 67.766 14.6273 67.694 14.8313 67.694C15.0473 67.694 15.2213 67.766 15.3533 67.91C15.4853 68.042 15.5513 68.21 15.5513 68.414V69.692L15.1913 70.088C15.2513 69.776 15.3893 69.464 15.6053 69.152C15.8213 68.828 16.0913 68.54 16.4153 68.288C16.7393 68.036 17.0993 67.838 17.4953 67.694C17.8913 67.538 18.3053 67.46 18.7373 67.46ZM32.291 63.68C32.495 63.68 32.663 63.752 32.795 63.896C32.939 64.028 33.011 64.196 33.011 64.4V76.262C33.011 76.466 32.939 76.64 32.795 76.784C32.663 76.928 32.495 77 32.291 77C32.075 77 31.901 76.928 31.769 76.784C31.637 76.64 31.571 76.466 31.571 76.262V74.552L31.913 74.426C31.913 74.714 31.823 75.02 31.643 75.344C31.463 75.656 31.217 75.95 30.905 76.226C30.593 76.502 30.221 76.73 29.789 76.91C29.369 77.09 28.913 77.18 28.421 77.18C27.617 77.18 26.885 76.97 26.225 76.55C25.577 76.13 25.061 75.554 24.677 74.822C24.305 74.09 24.119 73.256 24.119 72.32C24.119 71.372 24.305 70.532 24.677 69.8C25.061 69.068 25.577 68.498 26.225 68.09C26.873 67.67 27.593 67.46 28.385 67.46C28.889 67.46 29.363 67.544 29.807 67.712C30.251 67.88 30.635 68.108 30.959 68.396C31.295 68.684 31.559 69.002 31.751 69.35C31.943 69.698 32.039 70.046 32.039 70.394L31.571 70.286V64.4C31.571 64.196 31.637 64.028 31.769 63.896C31.901 63.752 32.075 63.68 32.291 63.68ZM28.583 75.848C29.183 75.848 29.711 75.698 30.167 75.398C30.635 75.086 30.995 74.666 31.247 74.138C31.511 73.598 31.643 72.992 31.643 72.32C31.643 71.636 31.511 71.03 31.247 70.502C30.995 69.974 30.635 69.56 30.167 69.26C29.711 68.948 29.183 68.792 28.583 68.792C27.995 68.792 27.467 68.948 26.999 69.26C26.543 69.56 26.183 69.974 25.919 70.502C25.655 71.03 25.523 71.636 25.523 72.32C25.523 72.98 25.655 73.58 25.919 74.12C26.183 74.648 26.543 75.068 26.999 75.38C27.467 75.692 27.995 75.848 28.583 75.848ZM44.5177 72.32C44.5177 73.256 44.3077 74.09 43.8877 74.822C43.4797 75.554 42.9217 76.13 42.2137 76.55C41.5177 76.97 40.7317 77.18 39.8557 77.18C38.9797 77.18 38.1877 76.97 37.4797 76.55C36.7717 76.13 36.2077 75.554 35.7877 74.822C35.3797 74.09 35.1757 73.256 35.1757 72.32C35.1757 71.384 35.3797 70.55 35.7877 69.818C36.2077 69.086 36.7717 68.51 37.4797 68.09C38.1877 67.67 38.9797 67.46 39.8557 67.46C40.7317 67.46 41.5177 67.67 42.2137 68.09C42.9217 68.51 43.4797 69.086 43.8877 69.818C44.3077 70.55 44.5177 71.384 44.5177 72.32ZM43.0777 72.32C43.0777 71.624 42.9337 71.012 42.6457 70.484C42.3697 69.956 41.9857 69.542 41.4937 69.242C41.0137 68.942 40.4677 68.792 39.8557 68.792C39.2437 68.792 38.6917 68.942 38.1997 69.242C37.7197 69.542 37.3357 69.956 37.0477 70.484C36.7597 71.012 36.6157 71.624 36.6157 72.32C36.6157 73.004 36.7597 73.61 37.0477 74.138C37.3357 74.666 37.7197 75.086 38.1997 75.398C38.6917 75.698 39.2437 75.848 39.8557 75.848C40.4677 75.848 41.0137 75.698 41.4937 75.398C41.9857 75.086 42.3697 74.666 42.6457 74.138C42.9337 73.61 43.0777 73.004 43.0777 72.32ZM53.0266 76.262C53.0266 76.466 52.9546 76.64 52.8106 76.784C52.6786 76.928 52.5106 77 52.3066 77C52.0906 77 51.9166 76.928 51.7846 76.784C51.6526 76.64 51.5866 76.466 51.5866 76.262V68.27C51.5866 68.066 51.6526 67.898 51.7846 67.766C51.9286 67.622 52.1026 67.55 52.3066 67.55C52.5106 67.55 52.6786 67.622 52.8106 67.766C52.9546 67.898 53.0266 68.066 53.0266 68.27V76.262ZM52.3066 66.344C52.0066 66.344 51.7846 66.284 51.6406 66.164C51.4966 66.044 51.4246 65.858 51.4246 65.606V65.354C51.4246 65.102 51.5026 64.916 51.6586 64.796C51.8146 64.676 52.0366 64.616 52.3246 64.616C52.6126 64.616 52.8286 64.676 52.9726 64.796C53.1166 64.916 53.1886 65.102 53.1886 65.354V65.606C53.1886 65.858 53.1106 66.044 52.9546 66.164C52.8106 66.284 52.5946 66.344 52.3066 66.344ZM60.0593 67.55C60.8753 67.55 61.5353 67.76 62.0393 68.18C62.5553 68.588 62.8973 69.17 63.0653 69.926H62.7953L62.9213 69.602C63.0653 69.266 63.3113 68.942 63.6593 68.63C64.0073 68.318 64.4093 68.06 64.8652 67.856C65.3213 67.652 65.7953 67.55 66.2873 67.55C67.0793 67.55 67.7033 67.724 68.1593 68.072C68.6153 68.408 68.9393 68.864 69.1313 69.44C69.3353 70.004 69.4373 70.64 69.4373 71.348V76.262C69.4373 76.466 69.3653 76.64 69.2213 76.784C69.0893 76.928 68.9213 77 68.7173 77C68.5013 77 68.3273 76.928 68.1953 76.784C68.0633 76.64 67.9973 76.466 67.9973 76.262V71.384C67.9973 70.916 67.9253 70.496 67.7813 70.124C67.6493 69.74 67.4273 69.44 67.1153 69.224C66.8153 68.996 66.4013 68.882 65.8733 68.882C65.3813 68.882 64.9313 68.996 64.5233 69.224C64.1153 69.44 63.7913 69.74 63.5513 70.124C63.3113 70.496 63.1913 70.916 63.1913 71.384V76.262C63.1913 76.466 63.1253 76.64 62.9933 76.784C62.8613 76.928 62.6873 77 62.4713 77C62.2673 77 62.0933 76.928 61.9493 76.784C61.8173 76.64 61.7513 76.466 61.7513 76.262V71.33C61.7513 70.874 61.6853 70.466 61.5533 70.106C61.4333 69.734 61.2233 69.44 60.9233 69.224C60.6233 68.996 60.2093 68.882 59.6813 68.882C59.2013 68.882 58.7633 68.996 58.3673 69.224C57.9713 69.44 57.6533 69.734 57.4133 70.106C57.1733 70.466 57.0533 70.874 57.0533 71.33V76.262C57.0533 76.466 56.9813 76.64 56.8373 76.784C56.7053 76.928 56.5373 77 56.3333 77C56.1293 77 55.9553 76.928 55.8113 76.784C55.6793 76.64 55.6133 76.466 55.6133 76.262V68.414C55.6133 68.21 55.6793 68.042 55.8113 67.91C55.9553 67.766 56.1293 67.694 56.3333 67.694C56.5493 67.694 56.7233 67.766 56.8553 67.91C56.9873 68.042 57.0533 68.21 57.0533 68.414V69.782L56.6572 70.214C56.7053 69.902 56.8253 69.59 57.0173 69.278C57.2213 68.966 57.4793 68.678 57.7913 68.414C58.1033 68.15 58.4513 67.94 58.8353 67.784C59.2193 67.628 59.6273 67.55 60.0593 67.55ZM79.7695 67.604C79.9735 67.604 80.1415 67.676 80.2735 67.82C80.4175 67.952 80.4895 68.12 80.4895 68.324V76.262C80.4895 76.466 80.4175 76.64 80.2735 76.784C80.1415 76.928 79.9735 77 79.7695 77C79.5535 77 79.3795 76.928 79.2475 76.784C79.1155 76.64 79.0495 76.466 79.0495 76.262V74.552L79.3915 74.516C79.3915 74.78 79.3015 75.068 79.1215 75.38C78.9415 75.692 78.6955 75.986 78.3835 76.262C78.0715 76.526 77.6995 76.748 77.2675 76.928C76.8475 77.096 76.3915 77.18 75.8995 77.18C75.0835 77.18 74.3515 76.97 73.7035 76.55C73.0555 76.118 72.5395 75.536 72.1555 74.804C71.7835 74.072 71.5975 73.238 71.5975 72.302C71.5975 71.354 71.7835 70.52 72.1555 69.8C72.5395 69.068 73.0555 68.498 73.7035 68.09C74.3515 67.67 75.0715 67.46 75.8635 67.46C76.3795 67.46 76.8595 67.544 77.3035 67.712C77.7475 67.88 78.1315 68.108 78.4555 68.396C78.7915 68.684 79.0495 69.002 79.2295 69.35C79.4215 69.698 79.5175 70.046 79.5175 70.394L79.0495 70.286V68.324C79.0495 68.12 79.1155 67.952 79.2475 67.82C79.3795 67.676 79.5535 67.604 79.7695 67.604ZM76.0615 75.848C76.6615 75.848 77.1895 75.692 77.6455 75.38C78.1135 75.068 78.4735 74.648 78.7255 74.12C78.9895 73.58 79.1215 72.974 79.1215 72.302C79.1215 71.642 78.9895 71.048 78.7255 70.52C78.4735 69.98 78.1135 69.56 77.6455 69.26C77.1895 68.948 76.6615 68.792 76.0615 68.792C75.4735 68.792 74.9455 68.942 74.4775 69.242C74.0215 69.542 73.6615 69.956 73.3975 70.484C73.1335 71.012 73.0015 71.618 73.0015 72.302C73.0015 72.974 73.1275 73.58 73.3795 74.12C73.6435 74.648 74.0035 75.068 74.4595 75.38C74.9275 75.692 75.4615 75.848 76.0615 75.848ZM87.0642 67.46C87.5802 67.46 88.0602 67.55 88.5042 67.73C88.9482 67.898 89.3322 68.12 89.6562 68.396C89.9922 68.672 90.2502 68.96 90.4302 69.26C90.6222 69.56 90.7182 69.842 90.7182 70.106L90.3762 69.89V68.324C90.3762 68.12 90.4422 67.952 90.5742 67.82C90.7062 67.676 90.8802 67.604 91.0962 67.604C91.3002 67.604 91.4682 67.676 91.6002 67.82C91.7442 67.952 91.8162 68.12 91.8162 68.324V76.208C91.8162 77.192 91.6062 78.008 91.1862 78.656C90.7782 79.304 90.2262 79.79 89.5302 80.114C88.8342 80.438 88.0542 80.6 87.1902 80.6C86.8302 80.6 86.4342 80.552 86.0022 80.456C85.5702 80.36 85.1862 80.24 84.8502 80.096C84.5142 79.964 84.2982 79.826 84.2022 79.682C84.0222 79.562 83.9082 79.424 83.8602 79.268C83.8242 79.124 83.8542 78.986 83.9502 78.854C84.0582 78.686 84.1962 78.602 84.3642 78.602C84.5442 78.602 84.7662 78.656 85.0302 78.764C85.1382 78.8 85.3062 78.86 85.5342 78.944C85.7742 79.028 86.0382 79.1 86.3262 79.16C86.6262 79.232 86.9202 79.268 87.2082 79.268C88.2282 79.268 89.0082 78.998 89.5482 78.458C90.1002 77.93 90.3762 77.228 90.3762 76.352V74.678L90.5742 74.768C90.5022 75.104 90.3522 75.416 90.1242 75.704C89.9082 75.992 89.6382 76.25 89.3142 76.478C89.0022 76.694 88.6542 76.868 88.2702 77C87.8862 77.12 87.4962 77.18 87.1002 77.18C86.2602 77.18 85.5042 76.97 84.8322 76.55C84.1602 76.13 83.6262 75.554 83.2302 74.822C82.8462 74.09 82.6542 73.256 82.6542 72.32C82.6542 71.372 82.8462 70.532 83.2302 69.8C83.6262 69.068 84.1542 68.498 84.8142 68.09C85.4862 67.67 86.2362 67.46 87.0642 67.46ZM87.2442 68.792C86.6322 68.792 86.0802 68.948 85.5882 69.26C85.1082 69.56 84.7302 69.974 84.4542 70.502C84.1902 71.03 84.0582 71.636 84.0582 72.32C84.0582 72.98 84.1902 73.58 84.4542 74.12C84.7302 74.648 85.1082 75.068 85.5882 75.38C86.0802 75.692 86.6322 75.848 87.2442 75.848C87.8682 75.848 88.4202 75.698 88.9002 75.398C89.3802 75.086 89.7582 74.666 90.0342 74.138C90.3102 73.61 90.4482 73.004 90.4482 72.32C90.4482 71.624 90.3102 71.012 90.0342 70.484C89.7582 69.956 89.3802 69.542 88.9002 69.242C88.4202 68.942 87.8682 68.792 87.2442 68.792ZM98.4289 77.18C97.4689 77.18 96.6289 76.976 95.9089 76.568C95.1889 76.16 94.6249 75.602 94.2169 74.894C93.8209 74.174 93.6229 73.346 93.6229 72.41C93.6229 71.366 93.8269 70.478 94.2349 69.746C94.6549 69.002 95.1949 68.438 95.8549 68.054C96.5269 67.658 97.2349 67.46 97.9789 67.46C98.5309 67.46 99.0649 67.562 99.5809 67.766C100.097 67.97 100.553 68.27 100.949 68.666C101.345 69.05 101.663 69.518 101.903 70.07C102.143 70.61 102.269 71.216 102.281 71.888C102.281 72.08 102.209 72.242 102.065 72.374C101.921 72.506 101.753 72.572 101.561 72.572H94.4509L94.1269 71.33H101.057L100.769 71.582V71.186C100.721 70.694 100.553 70.274 100.265 69.926C99.9889 69.566 99.6469 69.29 99.2389 69.098C98.8429 68.906 98.4229 68.81 97.9789 68.81C97.6189 68.81 97.2589 68.876 96.8989 69.008C96.5509 69.128 96.2329 69.332 95.9449 69.62C95.6689 69.896 95.4409 70.256 95.2609 70.7C95.0929 71.144 95.0089 71.678 95.0089 72.302C95.0089 72.998 95.1469 73.61 95.4229 74.138C95.7109 74.666 96.1069 75.086 96.6109 75.398C97.1149 75.698 97.7029 75.848 98.3749 75.848C98.7949 75.848 99.1609 75.794 99.4729 75.686C99.7849 75.578 100.055 75.446 100.283 75.29C100.511 75.122 100.703 74.954 100.859 74.786C101.015 74.678 101.165 74.624 101.309 74.624C101.489 74.624 101.633 74.684 101.741 74.804C101.861 74.924 101.921 75.068 101.921 75.236C101.921 75.44 101.825 75.62 101.633 75.776C101.297 76.148 100.841 76.478 100.265 76.766C99.6889 77.042 99.0769 77.18 98.4289 77.18Z"
                fill="#A6AE9D"
              />
              <path
                d="M10.908 151.4C11.112 151.4 11.274 151.466 11.394 151.598C11.514 151.718 11.574 151.874 11.574 152.066V163.244C11.574 163.472 11.502 163.658 11.358 163.802C11.214 163.934 11.04 164 10.836 164C10.728 164 10.62 163.982 10.512 163.946C10.404 163.898 10.32 163.838 10.26 163.766L2.556 153.578L2.916 153.362V163.334C2.916 163.526 2.85 163.688 2.718 163.82C2.598 163.94 2.436 164 2.232 164C2.04 164 1.884 163.94 1.764 163.82C1.644 163.688 1.584 163.526 1.584 163.334V152.12C1.584 151.904 1.65 151.73 1.782 151.598C1.926 151.466 2.094 151.4 2.286 151.4C2.394 151.4 2.502 151.424 2.61 151.472C2.73 151.508 2.82 151.568 2.88 151.652L10.476 161.696L10.242 161.984V152.066C10.242 151.874 10.302 151.718 10.422 151.598C10.554 151.466 10.716 151.4 10.908 151.4ZM18.7824 164.18C17.8224 164.18 16.9824 163.976 16.2624 163.568C15.5424 163.16 14.9784 162.602 14.5704 161.894C14.1744 161.174 13.9764 160.346 13.9764 159.41C13.9764 158.366 14.1804 157.478 14.5884 156.746C15.0084 156.002 15.5484 155.438 16.2084 155.054C16.8804 154.658 17.5884 154.46 18.3324 154.46C18.8844 154.46 19.4184 154.562 19.9344 154.766C20.4504 154.97 20.9064 155.27 21.3024 155.666C21.6984 156.05 22.0164 156.518 22.2564 157.07C22.4964 157.61 22.6224 158.216 22.6344 158.888C22.6344 159.08 22.5624 159.242 22.4184 159.374C22.2744 159.506 22.1064 159.572 21.9144 159.572H14.8044L14.4804 158.33H21.4104L21.1224 158.582V158.186C21.0744 157.694 20.9064 157.274 20.6184 156.926C20.3424 156.566 20.0004 156.29 19.5924 156.098C19.1964 155.906 18.7764 155.81 18.3324 155.81C17.9724 155.81 17.6124 155.876 17.2524 156.008C16.9044 156.128 16.5864 156.332 16.2984 156.62C16.0224 156.896 15.7944 157.256 15.6144 157.7C15.4464 158.144 15.3624 158.678 15.3624 159.302C15.3624 159.998 15.5004 160.61 15.7764 161.138C16.0644 161.666 16.4604 162.086 16.9644 162.398C17.4684 162.698 18.0564 162.848 18.7284 162.848C19.1484 162.848 19.5144 162.794 19.8264 162.686C20.1384 162.578 20.4084 162.446 20.6364 162.29C20.8644 162.122 21.0564 161.954 21.2124 161.786C21.3684 161.678 21.5184 161.624 21.6624 161.624C21.8424 161.624 21.9864 161.684 22.0944 161.804C22.2144 161.924 22.2744 162.068 22.2744 162.236C22.2744 162.44 22.1784 162.62 21.9864 162.776C21.6504 163.148 21.1944 163.478 20.6184 163.766C20.0424 164.042 19.4304 164.18 18.7824 164.18ZM24.6209 154.586C24.8489 154.586 25.0409 154.688 25.1969 154.892L31.4609 162.884C31.5569 163.016 31.6049 163.16 31.6049 163.316C31.6049 163.52 31.5329 163.694 31.3889 163.838C31.2449 163.982 31.0769 164.054 30.8849 164.054C30.6569 164.054 30.4589 163.946 30.2909 163.73L24.0269 155.756C23.9309 155.624 23.8829 155.48 23.8829 155.324C23.8829 155.108 23.9549 154.934 24.0989 154.802C24.2549 154.658 24.4289 154.586 24.6209 154.586ZM24.6209 164.036C24.4649 164.036 24.3089 163.976 24.1529 163.856C23.9969 163.736 23.9189 163.58 23.9189 163.388C23.9189 163.232 23.9789 163.082 24.0989 162.938L27.0509 159.212L27.8069 160.4L25.1969 163.748C25.0529 163.94 24.8609 164.036 24.6209 164.036ZM30.8849 154.586C31.0889 154.586 31.2509 154.652 31.3709 154.784C31.5029 154.916 31.5689 155.066 31.5689 155.234C31.5689 155.306 31.5509 155.384 31.5149 155.468C31.4909 155.552 31.4489 155.63 31.3889 155.702L28.4549 159.464L27.6989 158.366L30.2909 154.91C30.4589 154.694 30.6569 154.586 30.8849 154.586ZM33.9837 154.748H38.2137C38.4057 154.748 38.5617 154.814 38.6817 154.946C38.8137 155.078 38.8797 155.234 38.8797 155.414C38.8797 155.606 38.8137 155.768 38.6817 155.9C38.5617 156.02 38.4057 156.08 38.2137 156.08H33.9837C33.8037 156.08 33.6477 156.014 33.5157 155.882C33.3837 155.75 33.3177 155.588 33.3177 155.396C33.3177 155.216 33.3837 155.066 33.5157 154.946C33.6477 154.814 33.8037 154.748 33.9837 154.748ZM35.8737 152.3C36.0777 152.3 36.2457 152.372 36.3777 152.516C36.5097 152.648 36.5757 152.816 36.5757 153.02V161.714C36.5757 162.002 36.6177 162.218 36.7017 162.362C36.7857 162.506 36.8937 162.608 37.0257 162.668C37.1697 162.716 37.3077 162.74 37.4397 162.74C37.5597 162.74 37.6617 162.722 37.7457 162.686C37.8417 162.638 37.9497 162.614 38.0697 162.614C38.1897 162.614 38.2977 162.674 38.3937 162.794C38.5017 162.902 38.5557 163.046 38.5557 163.226C38.5557 163.442 38.4297 163.628 38.1777 163.784C37.9257 163.928 37.6437 164 37.3317 164C37.1637 164 36.9537 163.988 36.7017 163.964C36.4617 163.94 36.2217 163.862 35.9817 163.73C35.7417 163.598 35.5377 163.382 35.3697 163.082C35.2137 162.77 35.1357 162.338 35.1357 161.786V153.02C35.1357 152.816 35.2077 152.648 35.3517 152.516C35.4957 152.372 35.6697 152.3 35.8737 152.3ZM50.4298 154.55C51.2458 154.55 51.9778 154.754 52.6258 155.162C53.2738 155.57 53.7838 156.134 54.1558 156.854C54.5398 157.574 54.7318 158.402 54.7318 159.338C54.7318 160.262 54.5398 161.09 54.1558 161.822C53.7838 162.542 53.2738 163.112 52.6258 163.532C51.9898 163.94 51.2698 164.144 50.4658 164.144C50.0218 164.144 49.6018 164.078 49.2058 163.946C48.8218 163.802 48.4678 163.622 48.1438 163.406C47.8318 163.178 47.5678 162.926 47.3518 162.65C47.1358 162.362 46.9798 162.08 46.8838 161.804L47.2798 161.552V166.862C47.2798 167.066 47.2138 167.24 47.0818 167.384C46.9498 167.528 46.7758 167.6 46.5598 167.6C46.3558 167.6 46.1818 167.528 46.0378 167.384C45.9058 167.252 45.8398 167.078 45.8398 166.862V155.36C45.8398 155.156 45.9058 154.988 46.0378 154.856C46.1818 154.712 46.3558 154.64 46.5598 154.64C46.7758 154.64 46.9498 154.712 47.0818 154.856C47.2138 154.988 47.2798 155.156 47.2798 155.36V156.962L47.0098 156.818C47.0938 156.518 47.2378 156.23 47.4418 155.954C47.6578 155.678 47.9158 155.438 48.2158 155.234C48.5278 155.018 48.8698 154.85 49.2418 154.73C49.6258 154.61 50.0218 154.55 50.4298 154.55ZM50.2678 155.882C49.6678 155.882 49.1338 156.032 48.6658 156.332C48.2098 156.632 47.8498 157.04 47.5858 157.556C47.3338 158.072 47.2078 158.666 47.2078 159.338C47.2078 159.998 47.3338 160.592 47.5858 161.12C47.8498 161.648 48.2098 162.062 48.6658 162.362C49.1338 162.662 49.6678 162.812 50.2678 162.812C50.8678 162.812 51.3958 162.662 51.8518 162.362C52.3078 162.062 52.6678 161.648 52.9318 161.12C53.1958 160.592 53.3278 159.998 53.3278 159.338C53.3278 158.666 53.1958 158.072 52.9318 157.556C52.6678 157.04 52.3078 156.632 51.8518 156.332C51.3958 156.032 50.8678 155.882 50.2678 155.882ZM64.5645 154.604C64.7685 154.604 64.9365 154.676 65.0685 154.82C65.2125 154.952 65.2845 155.12 65.2845 155.324V163.262C65.2845 163.466 65.2125 163.64 65.0685 163.784C64.9365 163.928 64.7685 164 64.5645 164C64.3485 164 64.1745 163.928 64.0425 163.784C63.9105 163.64 63.8445 163.466 63.8445 163.262V161.552L64.1865 161.516C64.1865 161.78 64.0965 162.068 63.9165 162.38C63.7365 162.692 63.4905 162.986 63.1785 163.262C62.8665 163.526 62.4945 163.748 62.0625 163.928C61.6425 164.096 61.1865 164.18 60.6945 164.18C59.8785 164.18 59.1465 163.97 58.4985 163.55C57.8505 163.118 57.3345 162.536 56.9505 161.804C56.5785 161.072 56.3925 160.238 56.3925 159.302C56.3925 158.354 56.5785 157.52 56.9505 156.8C57.3345 156.068 57.8505 155.498 58.4985 155.09C59.1465 154.67 59.8665 154.46 60.6585 154.46C61.1745 154.46 61.6545 154.544 62.0985 154.712C62.5425 154.88 62.9265 155.108 63.2505 155.396C63.5865 155.684 63.8445 156.002 64.0245 156.35C64.2165 156.698 64.3125 157.046 64.3125 157.394L63.8445 157.286V155.324C63.8445 155.12 63.9105 154.952 64.0425 154.82C64.1745 154.676 64.3485 154.604 64.5645 154.604ZM60.8565 162.848C61.4565 162.848 61.9845 162.692 62.4405 162.38C62.9085 162.068 63.2685 161.648 63.5205 161.12C63.7845 160.58 63.9165 159.974 63.9165 159.302C63.9165 158.642 63.7845 158.048 63.5205 157.52C63.2685 156.98 62.9085 156.56 62.4405 156.26C61.9845 155.948 61.4565 155.792 60.8565 155.792C60.2685 155.792 59.7405 155.942 59.2725 156.242C58.8165 156.542 58.4565 156.956 58.1925 157.484C57.9285 158.012 57.7965 158.618 57.7965 159.302C57.7965 159.974 57.9225 160.58 58.1745 161.12C58.4385 161.648 58.7985 162.068 59.2545 162.38C59.7225 162.692 60.2565 162.848 60.8565 162.848ZM71.8591 154.46C72.3751 154.46 72.8551 154.55 73.2991 154.73C73.7431 154.898 74.1271 155.12 74.4511 155.396C74.7871 155.672 75.0451 155.96 75.2251 156.26C75.4171 156.56 75.5131 156.842 75.5131 157.106L75.1711 156.89V155.324C75.1711 155.12 75.2371 154.952 75.3691 154.82C75.5011 154.676 75.6751 154.604 75.8911 154.604C76.0951 154.604 76.2631 154.676 76.3951 154.82C76.5391 154.952 76.6111 155.12 76.6111 155.324V163.208C76.6111 164.192 76.4011 165.008 75.9811 165.656C75.5731 166.304 75.0211 166.79 74.3251 167.114C73.6291 167.438 72.8491 167.6 71.9851 167.6C71.6251 167.6 71.2291 167.552 70.7971 167.456C70.3651 167.36 69.9811 167.24 69.6451 167.096C69.3091 166.964 69.0931 166.826 68.9971 166.682C68.8171 166.562 68.7031 166.424 68.6551 166.268C68.6191 166.124 68.6491 165.986 68.7451 165.854C68.8531 165.686 68.9911 165.602 69.1591 165.602C69.3391 165.602 69.5611 165.656 69.8251 165.764C69.9331 165.8 70.1011 165.86 70.3291 165.944C70.5691 166.028 70.8331 166.1 71.1211 166.16C71.4211 166.232 71.7151 166.268 72.0031 166.268C73.0231 166.268 73.8031 165.998 74.3431 165.458C74.8951 164.93 75.1711 164.228 75.1711 163.352V161.678L75.3691 161.768C75.2971 162.104 75.1471 162.416 74.9191 162.704C74.7031 162.992 74.4331 163.25 74.1091 163.478C73.7971 163.694 73.4491 163.868 73.0651 164C72.6811 164.12 72.2911 164.18 71.8951 164.18C71.0551 164.18 70.2991 163.97 69.6271 163.55C68.9551 163.13 68.4211 162.554 68.0251 161.822C67.6411 161.09 67.4491 160.256 67.4491 159.32C67.4491 158.372 67.6411 157.532 68.0251 156.8C68.4211 156.068 68.9491 155.498 69.6091 155.09C70.2811 154.67 71.0311 154.46 71.8591 154.46ZM72.0391 155.792C71.4271 155.792 70.8751 155.948 70.3831 156.26C69.9031 156.56 69.5251 156.974 69.2491 157.502C68.9851 158.03 68.8531 158.636 68.8531 159.32C68.8531 159.98 68.9851 160.58 69.2491 161.12C69.5251 161.648 69.9031 162.068 70.3831 162.38C70.8751 162.692 71.4271 162.848 72.0391 162.848C72.6631 162.848 73.2151 162.698 73.6951 162.398C74.1751 162.086 74.5531 161.666 74.8291 161.138C75.1051 160.61 75.2431 160.004 75.2431 159.32C75.2431 158.624 75.1051 158.012 74.8291 157.484C74.5531 156.956 74.1751 156.542 73.6951 156.242C73.2151 155.942 72.6631 155.792 72.0391 155.792ZM83.2238 164.18C82.2638 164.18 81.4238 163.976 80.7038 163.568C79.9838 163.16 79.4198 162.602 79.0118 161.894C78.6158 161.174 78.4178 160.346 78.4178 159.41C78.4178 158.366 78.6218 157.478 79.0298 156.746C79.4498 156.002 79.9898 155.438 80.6498 155.054C81.3218 154.658 82.0298 154.46 82.7738 154.46C83.3258 154.46 83.8598 154.562 84.3758 154.766C84.8918 154.97 85.3478 155.27 85.7438 155.666C86.1398 156.05 86.4578 156.518 86.6978 157.07C86.9378 157.61 87.0638 158.216 87.0758 158.888C87.0758 159.08 87.0038 159.242 86.8598 159.374C86.7158 159.506 86.5478 159.572 86.3558 159.572H79.2458L78.9218 158.33H85.8518L85.5638 158.582V158.186C85.5158 157.694 85.3478 157.274 85.0598 156.926C84.7838 156.566 84.4418 156.29 84.0338 156.098C83.6378 155.906 83.2178 155.81 82.7738 155.81C82.4138 155.81 82.0538 155.876 81.6938 156.008C81.3458 156.128 81.0278 156.332 80.7398 156.62C80.4638 156.896 80.2358 157.256 80.0558 157.7C79.8878 158.144 79.8038 158.678 79.8038 159.302C79.8038 159.998 79.9418 160.61 80.2178 161.138C80.5058 161.666 80.9018 162.086 81.4058 162.398C81.9098 162.698 82.4978 162.848 83.1698 162.848C83.5898 162.848 83.9558 162.794 84.2678 162.686C84.5798 162.578 84.8498 162.446 85.0778 162.29C85.3058 162.122 85.4978 161.954 85.6538 161.786C85.8098 161.678 85.9598 161.624 86.1038 161.624C86.2838 161.624 86.4278 161.684 86.5358 161.804C86.6558 161.924 86.7158 162.068 86.7158 162.236C86.7158 162.44 86.6198 162.62 86.4278 162.776C86.0918 163.148 85.6358 163.478 85.0598 163.766C84.4838 164.042 83.8718 164.18 83.2238 164.18Z"
                fill="#A6AE9D"
              />
              <path
                d="M5.256 109.18C4.368 109.18 3.588 109.048 2.916 108.784C2.244 108.52 1.596 108.1 0.972 107.524C0.888 107.44 0.816 107.35 0.756 107.254C0.708 107.146 0.684 107.032 0.684 106.912C0.684 106.72 0.75 106.552 0.882 106.408C1.026 106.252 1.2 106.174 1.404 106.174C1.572 106.174 1.722 106.24 1.854 106.372C2.322 106.828 2.826 107.176 3.366 107.416C3.918 107.656 4.536 107.776 5.22 107.776C5.748 107.776 6.222 107.692 6.642 107.524C7.074 107.356 7.416 107.122 7.668 106.822C7.92 106.522 8.046 106.174 8.046 105.778C8.034 105.298 7.89 104.902 7.614 104.59C7.35 104.278 6.978 104.02 6.498 103.816C6.03 103.6 5.484 103.42 4.86 103.276C4.308 103.144 3.798 102.982 3.33 102.79C2.874 102.598 2.478 102.364 2.142 102.088C1.806 101.8 1.542 101.458 1.35 101.062C1.17 100.654 1.08 100.18 1.08 99.64C1.08 98.956 1.26 98.356 1.62 97.84C1.98 97.324 2.478 96.928 3.114 96.652C3.75 96.364 4.482 96.22 5.31 96.22C6.042 96.22 6.732 96.34 7.38 96.58C8.04 96.82 8.568 97.15 8.964 97.57C9.204 97.798 9.324 98.02 9.324 98.236C9.324 98.416 9.246 98.584 9.09 98.74C8.946 98.884 8.778 98.956 8.586 98.956C8.454 98.956 8.334 98.908 8.226 98.812C8.022 98.584 7.764 98.38 7.452 98.2C7.14 98.02 6.798 97.876 6.426 97.768C6.054 97.66 5.682 97.606 5.31 97.606C4.758 97.606 4.272 97.69 3.852 97.858C3.432 98.014 3.102 98.242 2.862 98.542C2.634 98.83 2.52 99.178 2.52 99.586C2.52 100.042 2.652 100.42 2.916 100.72C3.18 101.008 3.534 101.248 3.978 101.44C4.422 101.62 4.914 101.782 5.454 101.926C6.042 102.07 6.582 102.238 7.074 102.43C7.578 102.61 8.01 102.838 8.37 103.114C8.73 103.39 9.006 103.744 9.198 104.176C9.402 104.596 9.504 105.118 9.504 105.742C9.504 106.402 9.318 106.99 8.946 107.506C8.574 108.022 8.064 108.43 7.416 108.73C6.78 109.018 6.06 109.168 5.256 109.18ZM15.8079 99.46C16.4199 99.46 16.9719 99.526 17.4639 99.658C17.9559 99.79 18.3459 99.97 18.6339 100.198C18.9219 100.426 19.0659 100.684 19.0659 100.972C19.0659 101.128 19.0119 101.278 18.9039 101.422C18.7959 101.566 18.6519 101.638 18.4719 101.638C18.3039 101.638 18.1659 101.608 18.0579 101.548C17.9619 101.488 17.8659 101.41 17.7699 101.314C17.6859 101.218 17.5659 101.134 17.4099 101.062C17.2659 100.978 17.0559 100.912 16.7799 100.864C16.5039 100.816 16.2279 100.792 15.9519 100.792C15.2919 100.792 14.7099 100.948 14.2059 101.26C13.7139 101.572 13.3239 101.992 13.0359 102.52C12.7479 103.048 12.6039 103.648 12.6039 104.32C12.6039 104.992 12.7419 105.592 13.0179 106.12C13.2939 106.648 13.6779 107.068 14.1699 107.38C14.6619 107.692 15.2319 107.848 15.8799 107.848C16.2999 107.848 16.6359 107.812 16.8879 107.74C17.1399 107.668 17.3499 107.584 17.5179 107.488C17.7339 107.368 17.8959 107.248 18.0039 107.128C18.1239 107.008 18.2799 106.948 18.4719 106.948C18.6759 106.948 18.8319 107.014 18.9399 107.146C19.0599 107.278 19.1199 107.44 19.1199 107.632C19.1199 107.848 18.9699 108.076 18.6699 108.316C18.3699 108.556 17.9619 108.76 17.4459 108.928C16.9419 109.096 16.3659 109.18 15.7179 109.18C14.8059 109.18 14.0079 108.97 13.3239 108.55C12.6399 108.118 12.1059 107.536 11.7219 106.804C11.3499 106.06 11.1639 105.232 11.1639 104.32C11.1639 103.408 11.3559 102.586 11.7399 101.854C12.1359 101.122 12.6819 100.54 13.3779 100.108C14.0739 99.676 14.8839 99.46 15.8079 99.46ZM21.7219 109C21.5179 109 21.3439 108.928 21.1999 108.784C21.0679 108.64 21.0019 108.466 21.0019 108.262V100.414C21.0019 100.21 21.0679 100.042 21.1999 99.91C21.3439 99.766 21.5179 99.694 21.7219 99.694C21.9379 99.694 22.1119 99.766 22.2439 99.91C22.3759 100.042 22.4419 100.21 22.4419 100.414V102.79L22.2259 102.412C22.2979 102.04 22.4239 101.68 22.6039 101.332C22.7959 100.972 23.0359 100.654 23.3239 100.378C23.6119 100.09 23.9419 99.868 24.3139 99.712C24.6859 99.544 25.0939 99.46 25.5379 99.46C25.8019 99.46 26.0419 99.526 26.2579 99.658C26.4859 99.778 26.5999 99.952 26.5999 100.18C26.5999 100.432 26.5339 100.618 26.4019 100.738C26.2699 100.858 26.1199 100.918 25.9519 100.918C25.7959 100.918 25.6459 100.888 25.5019 100.828C25.3579 100.756 25.1779 100.72 24.9619 100.72C24.6619 100.72 24.3619 100.804 24.0619 100.972C23.7739 101.128 23.5039 101.356 23.2519 101.656C23.0119 101.956 22.8139 102.298 22.6579 102.682C22.5139 103.054 22.4419 103.456 22.4419 103.888V108.262C22.4419 108.466 22.3699 108.64 22.2259 108.784C22.0939 108.928 21.9259 109 21.7219 109ZM36.6602 104.32C36.6602 105.256 36.4502 106.09 36.0302 106.822C35.6222 107.554 35.0642 108.13 34.3562 108.55C33.6602 108.97 32.8742 109.18 31.9982 109.18C31.1222 109.18 30.3302 108.97 29.6222 108.55C28.9142 108.13 28.3502 107.554 27.9302 106.822C27.5222 106.09 27.3182 105.256 27.3182 104.32C27.3182 103.384 27.5222 102.55 27.9302 101.818C28.3502 101.086 28.9142 100.51 29.6222 100.09C30.3302 99.67 31.1222 99.46 31.9982 99.46C32.8742 99.46 33.6602 99.67 34.3562 100.09C35.0642 100.51 35.6222 101.086 36.0302 101.818C36.4502 102.55 36.6602 103.384 36.6602 104.32ZM35.2202 104.32C35.2202 103.624 35.0762 103.012 34.7882 102.484C34.5122 101.956 34.1282 101.542 33.6362 101.242C33.1562 100.942 32.6102 100.792 31.9982 100.792C31.3862 100.792 30.8342 100.942 30.3422 101.242C29.8622 101.542 29.4782 101.956 29.1902 102.484C28.9022 103.012 28.7582 103.624 28.7582 104.32C28.7582 105.004 28.9022 105.61 29.1902 106.138C29.4782 106.666 29.8622 107.086 30.3422 107.398C30.8342 107.698 31.3862 107.848 31.9982 107.848C32.6102 107.848 33.1562 107.698 33.6362 107.398C34.1282 107.086 34.5122 106.666 34.7882 106.138C35.0762 105.61 35.2202 105.004 35.2202 104.32ZM40.4101 108.262C40.4101 108.466 40.3381 108.64 40.1941 108.784C40.0501 108.928 39.8761 109 39.6721 109C39.4681 109 39.3001 108.928 39.1681 108.784C39.0361 108.64 38.9701 108.466 38.9701 108.262V96.4C38.9701 96.196 39.0361 96.028 39.1681 95.896C39.3121 95.752 39.4861 95.68 39.6901 95.68C39.9061 95.68 40.0801 95.752 40.2121 95.896C40.3441 96.028 40.4101 96.196 40.4101 96.4V108.262ZM44.7871 108.262C44.7871 108.466 44.7151 108.64 44.5711 108.784C44.4271 108.928 44.2531 109 44.0491 109C43.8451 109 43.6771 108.928 43.5451 108.784C43.4131 108.64 43.3471 108.466 43.3471 108.262V96.4C43.3471 96.196 43.4131 96.028 43.5451 95.896C43.6891 95.752 43.8631 95.68 44.0671 95.68C44.2831 95.68 44.4571 95.752 44.5891 95.896C44.7211 96.028 44.7871 96.196 44.7871 96.4V108.262ZM52.1771 99.748H56.4071C56.5991 99.748 56.7551 99.814 56.8751 99.946C57.0071 100.078 57.0731 100.234 57.0731 100.414C57.0731 100.606 57.0071 100.768 56.8751 100.9C56.7551 101.02 56.5991 101.08 56.4071 101.08H52.1771C51.9971 101.08 51.8411 101.014 51.7091 100.882C51.5771 100.75 51.5111 100.588 51.5111 100.396C51.5111 100.216 51.5771 100.066 51.7091 99.946C51.8411 99.814 51.9971 99.748 52.1771 99.748ZM54.0671 97.3C54.2711 97.3 54.4391 97.372 54.5711 97.516C54.7031 97.648 54.7691 97.816 54.7691 98.02V106.714C54.7691 107.002 54.8111 107.218 54.8951 107.362C54.9791 107.506 55.0871 107.608 55.2191 107.668C55.3631 107.716 55.5011 107.74 55.6331 107.74C55.7531 107.74 55.8551 107.722 55.9391 107.686C56.0351 107.638 56.1431 107.614 56.2631 107.614C56.3831 107.614 56.4911 107.674 56.5871 107.794C56.6951 107.902 56.7491 108.046 56.7491 108.226C56.7491 108.442 56.6231 108.628 56.3711 108.784C56.1191 108.928 55.8371 109 55.5251 109C55.3571 109 55.1471 108.988 54.8951 108.964C54.6551 108.94 54.4151 108.862 54.1751 108.73C53.9351 108.598 53.7311 108.382 53.5631 108.082C53.4071 107.77 53.3291 107.338 53.3291 106.786V98.02C53.3291 97.816 53.4011 97.648 53.5451 97.516C53.6891 97.372 53.8631 97.3 54.0671 97.3ZM63.5761 99.55C64.3681 99.55 64.9921 99.724 65.4481 100.072C65.9161 100.408 66.2461 100.864 66.4381 101.44C66.6421 102.004 66.7441 102.634 66.7441 103.33V108.262C66.7441 108.466 66.6721 108.64 66.5281 108.784C66.3961 108.928 66.2281 109 66.0241 109C65.8201 109 65.6461 108.928 65.5021 108.784C65.3701 108.64 65.3041 108.466 65.3041 108.262V103.33C65.3041 102.874 65.2381 102.466 65.1061 102.106C64.9741 101.734 64.7521 101.44 64.4401 101.224C64.1401 100.996 63.7261 100.882 63.1981 100.882C62.7061 100.882 62.2561 100.996 61.8481 101.224C61.4401 101.44 61.1161 101.734 60.8761 102.106C60.6361 102.466 60.5161 102.874 60.5161 103.33V108.262C60.5161 108.466 60.4441 108.64 60.3001 108.784C60.1681 108.928 60.0001 109 59.7961 109C59.5921 109 59.4181 108.928 59.2741 108.784C59.1421 108.64 59.0761 108.466 59.0761 108.262V96.4C59.0761 96.196 59.1421 96.028 59.2741 95.896C59.4181 95.752 59.5921 95.68 59.7961 95.68C60.0121 95.68 60.1861 95.752 60.3181 95.896C60.4501 96.028 60.5161 96.196 60.5161 96.4V101.782L60.1561 102.178C60.2161 101.866 60.3481 101.554 60.5521 101.242C60.7561 100.918 61.0141 100.63 61.3261 100.378C61.6381 100.126 61.9861 99.928 62.3701 99.784C62.7541 99.628 63.1561 99.55 63.5761 99.55ZM70.1321 109C69.9281 109 69.7541 108.928 69.6101 108.784C69.4781 108.64 69.4121 108.466 69.4121 108.262V100.414C69.4121 100.21 69.4781 100.042 69.6101 99.91C69.7541 99.766 69.9281 99.694 70.1321 99.694C70.3481 99.694 70.5221 99.766 70.6541 99.91C70.7861 100.042 70.8521 100.21 70.8521 100.414V102.79L70.6361 102.412C70.7081 102.04 70.8341 101.68 71.0141 101.332C71.2061 100.972 71.4461 100.654 71.7341 100.378C72.0221 100.09 72.3521 99.868 72.7241 99.712C73.0961 99.544 73.5041 99.46 73.9481 99.46C74.2121 99.46 74.4521 99.526 74.6681 99.658C74.8961 99.778 75.0101 99.952 75.0101 100.18C75.0101 100.432 74.9441 100.618 74.8121 100.738C74.6801 100.858 74.5301 100.918 74.3621 100.918C74.2061 100.918 74.0561 100.888 73.9121 100.828C73.7681 100.756 73.5881 100.72 73.3721 100.72C73.0721 100.72 72.7721 100.804 72.4721 100.972C72.1841 101.128 71.9141 101.356 71.6621 101.656C71.4221 101.956 71.2241 102.298 71.0681 102.682C70.9241 103.054 70.8521 103.456 70.8521 103.888V108.262C70.8521 108.466 70.7801 108.64 70.6361 108.784C70.5041 108.928 70.3361 109 70.1321 109ZM85.0704 104.32C85.0704 105.256 84.8604 106.09 84.4404 106.822C84.0324 107.554 83.4744 108.13 82.7664 108.55C82.0704 108.97 81.2844 109.18 80.4084 109.18C79.5324 109.18 78.7404 108.97 78.0324 108.55C77.3244 108.13 76.7604 107.554 76.3404 106.822C75.9324 106.09 75.7284 105.256 75.7284 104.32C75.7284 103.384 75.9324 102.55 76.3404 101.818C76.7604 101.086 77.3244 100.51 78.0324 100.09C78.7404 99.67 79.5324 99.46 80.4084 99.46C81.2844 99.46 82.0704 99.67 82.7664 100.09C83.4744 100.51 84.0324 101.086 84.4404 101.818C84.8604 102.55 85.0704 103.384 85.0704 104.32ZM83.6304 104.32C83.6304 103.624 83.4864 103.012 83.1984 102.484C82.9224 101.956 82.5384 101.542 82.0464 101.242C81.5664 100.942 81.0204 100.792 80.4084 100.792C79.7964 100.792 79.2444 100.942 78.7524 101.242C78.2724 101.542 77.8884 101.956 77.6004 102.484C77.3124 103.012 77.1684 103.624 77.1684 104.32C77.1684 105.004 77.3124 105.61 77.6004 106.138C77.8884 106.666 78.2724 107.086 78.7524 107.398C79.2444 107.698 79.7964 107.848 80.4084 107.848C81.0204 107.848 81.5664 107.698 82.0464 107.398C82.5384 107.086 82.9224 106.666 83.1984 106.138C83.4864 105.61 83.6304 105.004 83.6304 104.32ZM94.2023 99.694C94.4183 99.694 94.5923 99.766 94.7243 99.91C94.8563 100.042 94.9223 100.21 94.9223 100.414V105.328C94.9223 106.54 94.5803 107.482 93.8963 108.154C93.2243 108.814 92.2823 109.144 91.0703 109.144C89.8703 109.144 88.9283 108.814 88.2443 108.154C87.5723 107.482 87.2363 106.54 87.2363 105.328V100.414C87.2363 100.21 87.3023 100.042 87.4343 99.91C87.5783 99.766 87.7523 99.694 87.9563 99.694C88.1723 99.694 88.3463 99.766 88.4783 99.91C88.6103 100.042 88.6763 100.21 88.6763 100.414V105.328C88.6763 106.144 88.8863 106.762 89.3063 107.182C89.7263 107.602 90.3143 107.812 91.0703 107.812C91.8503 107.812 92.4443 107.602 92.8523 107.182C93.2723 106.762 93.4823 106.144 93.4823 105.328V100.414C93.4823 100.21 93.5483 100.042 93.6803 99.91C93.8243 99.766 93.9983 99.694 94.2023 99.694ZM101.32 99.46C101.836 99.46 102.316 99.55 102.76 99.73C103.204 99.898 103.588 100.12 103.912 100.396C104.248 100.672 104.506 100.96 104.686 101.26C104.878 101.56 104.974 101.842 104.974 102.106L104.632 101.89V100.324C104.632 100.12 104.698 99.952 104.83 99.82C104.962 99.676 105.136 99.604 105.352 99.604C105.556 99.604 105.724 99.676 105.856 99.82C106 99.952 106.072 100.12 106.072 100.324V108.208C106.072 109.192 105.862 110.008 105.442 110.656C105.034 111.304 104.482 111.79 103.786 112.114C103.09 112.438 102.31 112.6 101.446 112.6C101.086 112.6 100.69 112.552 100.258 112.456C99.826 112.36 99.442 112.24 99.106 112.096C98.77 111.964 98.554 111.826 98.458 111.682C98.278 111.562 98.164 111.424 98.116 111.268C98.08 111.124 98.11 110.986 98.206 110.854C98.314 110.686 98.452 110.602 98.62 110.602C98.8 110.602 99.022 110.656 99.286 110.764C99.394 110.8 99.562 110.86 99.79 110.944C100.03 111.028 100.294 111.1 100.582 111.16C100.882 111.232 101.176 111.268 101.464 111.268C102.484 111.268 103.264 110.998 103.804 110.458C104.356 109.93 104.632 109.228 104.632 108.352V106.678L104.83 106.768C104.758 107.104 104.608 107.416 104.38 107.704C104.164 107.992 103.894 108.25 103.57 108.478C103.258 108.694 102.91 108.868 102.526 109C102.142 109.12 101.752 109.18 101.356 109.18C100.516 109.18 99.76 108.97 99.088 108.55C98.416 108.13 97.882 107.554 97.486 106.822C97.102 106.09 96.91 105.256 96.91 104.32C96.91 103.372 97.102 102.532 97.486 101.8C97.882 101.068 98.41 100.498 99.07 100.09C99.742 99.67 100.492 99.46 101.32 99.46ZM101.5 100.792C100.888 100.792 100.336 100.948 99.844 101.26C99.364 101.56 98.986 101.974 98.71 102.502C98.446 103.03 98.314 103.636 98.314 104.32C98.314 104.98 98.446 105.58 98.71 106.12C98.986 106.648 99.364 107.068 99.844 107.38C100.336 107.692 100.888 107.848 101.5 107.848C102.124 107.848 102.676 107.698 103.156 107.398C103.636 107.086 104.014 106.666 104.29 106.138C104.566 105.61 104.704 105.004 104.704 104.32C104.704 103.624 104.566 103.012 104.29 102.484C104.014 101.956 103.636 101.542 103.156 101.242C102.676 100.942 102.124 100.792 101.5 100.792ZM113.234 99.55C114.026 99.55 114.65 99.724 115.106 100.072C115.574 100.408 115.904 100.864 116.096 101.44C116.3 102.004 116.402 102.634 116.402 103.33V108.262C116.402 108.466 116.33 108.64 116.186 108.784C116.054 108.928 115.886 109 115.682 109C115.478 109 115.304 108.928 115.16 108.784C115.028 108.64 114.962 108.466 114.962 108.262V103.33C114.962 102.874 114.896 102.466 114.764 102.106C114.632 101.734 114.41 101.44 114.098 101.224C113.798 100.996 113.384 100.882 112.856 100.882C112.364 100.882 111.914 100.996 111.506 101.224C111.098 101.44 110.774 101.734 110.534 102.106C110.294 102.466 110.174 102.874 110.174 103.33V108.262C110.174 108.466 110.102 108.64 109.958 108.784C109.826 108.928 109.658 109 109.454 109C109.25 109 109.076 108.928 108.932 108.784C108.8 108.64 108.734 108.466 108.734 108.262V96.4C108.734 96.196 108.8 96.028 108.932 95.896C109.076 95.752 109.25 95.68 109.454 95.68C109.67 95.68 109.844 95.752 109.976 95.896C110.108 96.028 110.174 96.196 110.174 96.4V101.782L109.814 102.178C109.874 101.866 110.006 101.554 110.21 101.242C110.414 100.918 110.672 100.63 110.984 100.378C111.296 100.126 111.644 99.928 112.028 99.784C112.412 99.628 112.814 99.55 113.234 99.55ZM2.718 131.262C2.718 131.466 2.646 131.64 2.502 131.784C2.37 131.928 2.202 132 1.998 132C1.782 132 1.608 131.928 1.476 131.784C1.344 131.64 1.278 131.466 1.278 131.262V123.27C1.278 123.066 1.344 122.898 1.476 122.766C1.62 122.622 1.794 122.55 1.998 122.55C2.202 122.55 2.37 122.622 2.502 122.766C2.646 122.898 2.718 123.066 2.718 123.27V131.262ZM1.998 121.344C1.698 121.344 1.476 121.284 1.332 121.164C1.188 121.044 1.116 120.858 1.116 120.606V120.354C1.116 120.102 1.194 119.916 1.35 119.796C1.506 119.676 1.728 119.616 2.016 119.616C2.304 119.616 2.52 119.676 2.664 119.796C2.808 119.916 2.88 120.102 2.88 120.354V120.606C2.88 120.858 2.802 121.044 2.646 121.164C2.502 121.284 2.286 121.344 1.998 121.344ZM9.75066 122.55C10.5667 122.55 11.2267 122.76 11.7307 123.18C12.2467 123.588 12.5887 124.17 12.7567 124.926H12.4867L12.6127 124.602C12.7567 124.266 13.0027 123.942 13.3507 123.63C13.6987 123.318 14.1007 123.06 14.5567 122.856C15.0127 122.652 15.4867 122.55 15.9787 122.55C16.7707 122.55 17.3947 122.724 17.8507 123.072C18.3067 123.408 18.6307 123.864 18.8227 124.44C19.0267 125.004 19.1287 125.64 19.1287 126.348V131.262C19.1287 131.466 19.0567 131.64 18.9127 131.784C18.7807 131.928 18.6127 132 18.4087 132C18.1927 132 18.0187 131.928 17.8867 131.784C17.7547 131.64 17.6887 131.466 17.6887 131.262V126.384C17.6887 125.916 17.6167 125.496 17.4727 125.124C17.3407 124.74 17.1187 124.44 16.8067 124.224C16.5067 123.996 16.0927 123.882 15.5647 123.882C15.0727 123.882 14.6227 123.996 14.2147 124.224C13.8067 124.44 13.4827 124.74 13.2427 125.124C13.0027 125.496 12.8827 125.916 12.8827 126.384V131.262C12.8827 131.466 12.8167 131.64 12.6847 131.784C12.5527 131.928 12.3787 132 12.1627 132C11.9587 132 11.7847 131.928 11.6407 131.784C11.5087 131.64 11.4427 131.466 11.4427 131.262V126.33C11.4427 125.874 11.3767 125.466 11.2447 125.106C11.1247 124.734 10.9147 124.44 10.6147 124.224C10.3147 123.996 9.90066 123.882 9.37266 123.882C8.89266 123.882 8.45466 123.996 8.05866 124.224C7.66266 124.44 7.34466 124.734 7.10466 125.106C6.86466 125.466 6.74466 125.874 6.74466 126.33V131.262C6.74466 131.466 6.67266 131.64 6.52866 131.784C6.39666 131.928 6.22866 132 6.02466 132C5.82066 132 5.64666 131.928 5.50266 131.784C5.37066 131.64 5.30466 131.466 5.30466 131.262V123.414C5.30466 123.21 5.37066 123.042 5.50266 122.91C5.64666 122.766 5.82066 122.694 6.02466 122.694C6.24066 122.694 6.41466 122.766 6.54666 122.91C6.67866 123.042 6.74466 123.21 6.74466 123.414V124.782L6.34866 125.214C6.39666 124.902 6.51666 124.59 6.70866 124.278C6.91266 123.966 7.17066 123.678 7.48266 123.414C7.79466 123.15 8.14266 122.94 8.52666 122.784C8.91066 122.628 9.31866 122.55 9.75066 122.55ZM29.4609 122.604C29.6649 122.604 29.8329 122.676 29.9649 122.82C30.1089 122.952 30.1809 123.12 30.1809 123.324V131.262C30.1809 131.466 30.1089 131.64 29.9649 131.784C29.8329 131.928 29.6649 132 29.4609 132C29.2449 132 29.0709 131.928 28.9389 131.784C28.8069 131.64 28.7409 131.466 28.7409 131.262V129.552L29.0829 129.516C29.0829 129.78 28.9929 130.068 28.8129 130.38C28.6329 130.692 28.3869 130.986 28.0749 131.262C27.7629 131.526 27.3909 131.748 26.9589 131.928C26.5389 132.096 26.0829 132.18 25.5909 132.18C24.7749 132.18 24.0429 131.97 23.3949 131.55C22.7469 131.118 22.2309 130.536 21.8469 129.804C21.4749 129.072 21.2889 128.238 21.2889 127.302C21.2889 126.354 21.4749 125.52 21.8469 124.8C22.2309 124.068 22.7469 123.498 23.3949 123.09C24.0429 122.67 24.7629 122.46 25.5549 122.46C26.0709 122.46 26.5509 122.544 26.9949 122.712C27.4389 122.88 27.8229 123.108 28.1469 123.396C28.4829 123.684 28.7409 124.002 28.9209 124.35C29.1129 124.698 29.2089 125.046 29.2089 125.394L28.7409 125.286V123.324C28.7409 123.12 28.8069 122.952 28.9389 122.82C29.0709 122.676 29.2449 122.604 29.4609 122.604ZM25.7529 130.848C26.3529 130.848 26.8809 130.692 27.3369 130.38C27.8049 130.068 28.1649 129.648 28.4169 129.12C28.6809 128.58 28.8129 127.974 28.8129 127.302C28.8129 126.642 28.6809 126.048 28.4169 125.52C28.1649 124.98 27.8049 124.56 27.3369 124.26C26.8809 123.948 26.3529 123.792 25.7529 123.792C25.1649 123.792 24.6369 123.942 24.1689 124.242C23.7129 124.542 23.3529 124.956 23.0889 125.484C22.8249 126.012 22.6929 126.618 22.6929 127.302C22.6929 127.974 22.8189 128.58 23.0709 129.12C23.3349 129.648 23.6949 130.068 24.1509 130.38C24.6189 130.692 25.1529 130.848 25.7529 130.848ZM36.7556 122.46C37.2716 122.46 37.7516 122.55 38.1956 122.73C38.6396 122.898 39.0236 123.12 39.3476 123.396C39.6836 123.672 39.9416 123.96 40.1216 124.26C40.3136 124.56 40.4096 124.842 40.4096 125.106L40.0676 124.89V123.324C40.0676 123.12 40.1336 122.952 40.2656 122.82C40.3976 122.676 40.5716 122.604 40.7876 122.604C40.9916 122.604 41.1596 122.676 41.2916 122.82C41.4356 122.952 41.5076 123.12 41.5076 123.324V131.208C41.5076 132.192 41.2976 133.008 40.8776 133.656C40.4696 134.304 39.9176 134.79 39.2216 135.114C38.5256 135.438 37.7456 135.6 36.8816 135.6C36.5216 135.6 36.1256 135.552 35.6936 135.456C35.2616 135.36 34.8776 135.24 34.5416 135.096C34.2056 134.964 33.9896 134.826 33.8936 134.682C33.7136 134.562 33.5996 134.424 33.5516 134.268C33.5156 134.124 33.5456 133.986 33.6416 133.854C33.7496 133.686 33.8876 133.602 34.0556 133.602C34.2356 133.602 34.4576 133.656 34.7216 133.764C34.8296 133.8 34.9976 133.86 35.2256 133.944C35.4656 134.028 35.7296 134.1 36.0176 134.16C36.3176 134.232 36.6116 134.268 36.8996 134.268C37.9196 134.268 38.6996 133.998 39.2396 133.458C39.7916 132.93 40.0676 132.228 40.0676 131.352V129.678L40.2656 129.768C40.1936 130.104 40.0436 130.416 39.8156 130.704C39.5996 130.992 39.3296 131.25 39.0056 131.478C38.6936 131.694 38.3456 131.868 37.9616 132C37.5776 132.12 37.1876 132.18 36.7916 132.18C35.9516 132.18 35.1956 131.97 34.5236 131.55C33.8516 131.13 33.3176 130.554 32.9216 129.822C32.5376 129.09 32.3456 128.256 32.3456 127.32C32.3456 126.372 32.5376 125.532 32.9216 124.8C33.3176 124.068 33.8456 123.498 34.5056 123.09C35.1776 122.67 35.9276 122.46 36.7556 122.46ZM36.9356 123.792C36.3236 123.792 35.7716 123.948 35.2796 124.26C34.7996 124.56 34.4216 124.974 34.1456 125.502C33.8816 126.03 33.7496 126.636 33.7496 127.32C33.7496 127.98 33.8816 128.58 34.1456 129.12C34.4216 129.648 34.7996 130.068 35.2796 130.38C35.7716 130.692 36.3236 130.848 36.9356 130.848C37.5596 130.848 38.1116 130.698 38.5916 130.398C39.0716 130.086 39.4496 129.666 39.7256 129.138C40.0016 128.61 40.1396 128.004 40.1396 127.32C40.1396 126.624 40.0016 126.012 39.7256 125.484C39.4496 124.956 39.0716 124.542 38.5916 124.242C38.1116 123.942 37.5596 123.792 36.9356 123.792ZM48.1203 132.18C47.1603 132.18 46.3203 131.976 45.6003 131.568C44.8803 131.16 44.3163 130.602 43.9083 129.894C43.5123 129.174 43.3143 128.346 43.3143 127.41C43.3143 126.366 43.5183 125.478 43.9263 124.746C44.3463 124.002 44.8863 123.438 45.5463 123.054C46.2183 122.658 46.9263 122.46 47.6703 122.46C48.2223 122.46 48.7563 122.562 49.2723 122.766C49.7883 122.97 50.2443 123.27 50.6403 123.666C51.0363 124.05 51.3543 124.518 51.5943 125.07C51.8343 125.61 51.9603 126.216 51.9723 126.888C51.9723 127.08 51.9003 127.242 51.7563 127.374C51.6123 127.506 51.4443 127.572 51.2523 127.572H44.1423L43.8183 126.33H50.7483L50.4603 126.582V126.186C50.4123 125.694 50.2443 125.274 49.9563 124.926C49.6803 124.566 49.3383 124.29 48.9303 124.098C48.5343 123.906 48.1143 123.81 47.6703 123.81C47.3103 123.81 46.9503 123.876 46.5903 124.008C46.2423 124.128 45.9243 124.332 45.6363 124.62C45.3603 124.896 45.1323 125.256 44.9523 125.7C44.7843 126.144 44.7003 126.678 44.7003 127.302C44.7003 127.998 44.8383 128.61 45.1143 129.138C45.4023 129.666 45.7983 130.086 46.3023 130.398C46.8063 130.698 47.3943 130.848 48.0663 130.848C48.4863 130.848 48.8523 130.794 49.1643 130.686C49.4763 130.578 49.7463 130.446 49.9743 130.29C50.2023 130.122 50.3943 129.954 50.5503 129.786C50.7063 129.678 50.8563 129.624 51.0003 129.624C51.1803 129.624 51.3243 129.684 51.4323 129.804C51.5523 129.924 51.6123 130.068 51.6123 130.236C51.6123 130.44 51.5163 130.62 51.3243 130.776C50.9883 131.148 50.5323 131.478 49.9563 131.766C49.3803 132.042 48.7683 132.18 48.1203 132.18ZM53.6147 130.524C53.5067 130.368 53.4587 130.206 53.4707 130.038C53.4827 129.858 53.5847 129.702 53.7767 129.57C53.8967 129.486 54.0347 129.45 54.1907 129.462C54.3587 129.474 54.5087 129.552 54.6407 129.696C54.9767 130.092 55.3607 130.41 55.7927 130.65C56.2247 130.878 56.7527 130.992 57.3767 130.992C57.6647 130.98 57.9527 130.932 58.2407 130.848C58.5287 130.764 58.7687 130.62 58.9607 130.416C59.1647 130.2 59.2667 129.918 59.2667 129.57C59.2667 129.234 59.1647 128.97 58.9607 128.778C58.7567 128.574 58.4927 128.412 58.1687 128.292C57.8447 128.16 57.4907 128.046 57.1067 127.95C56.7107 127.842 56.3207 127.722 55.9367 127.59C55.5527 127.446 55.2047 127.272 54.8927 127.068C54.5927 126.852 54.3467 126.588 54.1547 126.276C53.9747 125.952 53.8847 125.562 53.8847 125.106C53.8847 124.566 54.0287 124.098 54.3167 123.702C54.6167 123.306 55.0127 123 55.5047 122.784C56.0087 122.568 56.5547 122.46 57.1427 122.46C57.4787 122.46 57.8267 122.502 58.1867 122.586C58.5587 122.658 58.9187 122.79 59.2667 122.982C59.6147 123.162 59.9207 123.414 60.1847 123.738C60.2927 123.858 60.3527 124.008 60.3647 124.188C60.3767 124.368 60.2987 124.53 60.1307 124.674C59.9987 124.77 59.8487 124.812 59.6807 124.8C59.5247 124.788 59.3927 124.728 59.2847 124.62C59.0327 124.32 58.7147 124.092 58.3307 123.936C57.9587 123.768 57.5447 123.684 57.0887 123.684C56.8007 123.684 56.5187 123.726 56.2427 123.81C55.9667 123.894 55.7327 124.038 55.5407 124.242C55.3607 124.434 55.2707 124.704 55.2707 125.052C55.2827 125.376 55.3907 125.64 55.5947 125.844C55.7987 126.048 56.0747 126.216 56.4227 126.348C56.7707 126.468 57.1547 126.588 57.5747 126.708C57.9587 126.804 58.3247 126.918 58.6727 127.05C59.0327 127.17 59.3567 127.332 59.6447 127.536C59.9327 127.74 60.1607 128.004 60.3287 128.328C60.4967 128.64 60.5807 129.036 60.5807 129.516C60.5807 130.068 60.4247 130.548 60.1127 130.956C59.8007 131.352 59.3867 131.658 58.8707 131.874C58.3667 132.078 57.8207 132.18 57.2327 132.18C56.5727 132.18 55.9187 132.054 55.2707 131.802C54.6347 131.55 54.0827 131.124 53.6147 130.524Z"
                fill="#A6AE9D"
              />
              <path
                d="M237.433 103.383C237.413 103.375 237.392 103.368 237.372 103.362C237.261 103.329 237.163 103.257 237.094 103.159C237.024 103.061 236.987 102.942 236.988 102.819C236.986 102.462 236.988 102.105 236.988 101.748V96.3112C236.952 96.3486 236.928 96.3729 236.905 96.3979C236.244 97.1075 235.584 97.817 234.924 98.5265C234.624 98.8474 234.139 98.7279 234.025 98.3047C233.964 98.0803 234.016 97.8824 234.172 97.7167C234.558 97.304 234.945 96.8914 235.332 96.4789C235.927 95.8446 236.522 95.2104 237.117 94.5762C237.359 94.319 237.673 94.3177 237.914 94.5744C238.89 95.6146 239.866 96.6554 240.842 97.6966C240.919 97.7752 240.971 97.8774 240.991 97.989C241.011 98.1006 240.998 98.2161 240.954 98.3194C240.911 98.4235 240.84 98.5113 240.749 98.5711C240.658 98.6308 240.552 98.6596 240.446 98.6537C240.302 98.6463 240.182 98.5808 240.081 98.4722C239.432 97.7797 238.783 97.0878 238.132 96.3963C238.108 96.3708 238.09 96.3423 238.069 96.3152L238.045 96.3242V96.4216C238.045 98.5392 238.045 100.657 238.045 102.774C238.045 103.022 237.954 103.21 237.745 103.326C237.697 103.348 237.649 103.367 237.599 103.383H237.433Z"
                fill="#A6AE9D"
              />
              <path
                d="M237.499 114.765C237.519 114.772 237.539 114.779 237.56 114.786C237.671 114.819 237.769 114.89 237.838 114.988C237.907 115.086 237.944 115.206 237.943 115.329C237.946 115.686 237.943 116.042 237.943 116.399V121.837C237.979 121.799 238.003 121.775 238.026 121.75C238.687 121.04 239.347 120.331 240.008 119.621C240.307 119.3 240.792 119.42 240.907 119.843C240.967 120.067 240.915 120.265 240.76 120.431C240.373 120.844 239.986 121.256 239.599 121.669C239.004 122.303 238.409 122.937 237.814 123.571C237.573 123.829 237.259 123.83 237.018 123.573C236.042 122.533 235.066 121.492 234.09 120.451C234.013 120.372 233.961 120.27 233.941 120.159C233.921 120.047 233.934 119.932 233.978 119.828C234.02 119.724 234.092 119.636 234.183 119.577C234.273 119.517 234.379 119.488 234.486 119.494C234.629 119.501 234.749 119.567 234.85 119.676C235.499 120.368 236.149 121.06 236.799 121.751C236.823 121.777 236.842 121.805 236.863 121.832L236.887 121.824V121.726C236.887 119.608 236.887 117.491 236.887 115.373C236.887 115.126 236.977 114.937 237.187 114.822C237.234 114.8 237.283 114.781 237.332 114.765H237.499Z"
                fill="#A6AE9D"
              />
              <path
                d="M217.931 119.332C217.924 119.353 217.917 119.373 217.91 119.394C217.877 119.505 217.806 119.602 217.708 119.672C217.61 119.741 217.491 119.778 217.368 119.777C217.011 119.78 216.654 119.777 216.297 119.777H210.86C210.897 119.813 210.922 119.837 210.947 119.86C211.656 120.521 212.366 121.181 213.075 121.842C213.396 122.141 213.277 122.626 212.853 122.741C212.629 122.801 212.431 122.749 212.266 122.593C211.853 122.207 211.44 121.82 211.028 121.433C210.393 120.838 209.759 120.243 209.125 119.648C208.868 119.407 208.867 119.092 209.123 118.851C210.163 117.875 211.204 116.899 212.245 115.924C212.324 115.846 212.426 115.794 212.538 115.774C212.649 115.754 212.765 115.767 212.868 115.812C212.972 115.854 213.06 115.926 213.12 116.016C213.18 116.107 213.208 116.213 213.203 116.319C213.195 116.463 213.13 116.583 213.021 116.684C212.329 117.333 211.637 117.983 210.945 118.633C210.92 118.657 210.891 118.675 210.864 118.696L210.873 118.72H210.97C213.088 118.72 215.206 118.72 217.323 118.72C217.571 118.72 217.759 118.811 217.875 119.021C217.897 119.068 217.916 119.117 217.931 119.166V119.332Z"
                fill="#A6AE9D"
              />
              <path
                d="M256.931 119.198C256.939 119.178 256.946 119.157 256.952 119.137C256.985 119.026 257.056 118.928 257.155 118.859C257.253 118.789 257.372 118.752 257.495 118.753C257.852 118.751 258.209 118.753 258.566 118.753H264.003C263.965 118.717 263.941 118.693 263.916 118.67C263.206 118.01 262.497 117.349 261.788 116.689C261.467 116.389 261.586 115.904 262.009 115.79C262.234 115.729 262.432 115.781 262.597 115.937C263.01 116.324 263.423 116.71 263.835 117.097C264.469 117.692 265.104 118.287 265.738 118.882C265.995 119.124 265.996 119.438 265.74 119.679C264.699 120.655 263.659 121.631 262.617 122.607C262.539 122.684 262.437 122.736 262.325 122.756C262.213 122.776 262.098 122.763 261.995 122.719C261.89 122.676 261.803 122.605 261.743 122.514C261.683 122.423 261.654 122.317 261.66 122.211C261.668 122.067 261.733 121.947 261.842 121.847C262.534 121.198 263.226 120.548 263.918 119.897C263.943 119.873 263.972 119.855 263.999 119.834L263.99 119.81H263.892C261.775 119.81 259.657 119.81 257.54 119.81C257.292 119.81 257.103 119.72 256.988 119.51C256.966 119.462 256.947 119.414 256.931 119.364V119.198Z"
                fill="#A6AE9D"
              />
              <line
                x1="188"
                y1="163.25"
                x2="264"
                y2="163.25"
                stroke="#A6AE9D"
                stroke-width="1.5"
              />
              <line
                x1="188.759"
                y1="159.752"
                x2="188.752"
                y2="163.101"
                stroke="#A6AE9D"
                stroke-width="1.5"
                stroke-linecap="round"
              />
              <line
                x1="263.759"
                y1="159.752"
                x2="263.752"
                y2="163.101"
                stroke="#A6AE9D"
                stroke-width="1.5"
                stroke-linecap="round"
              />
              <path
                d="M269 71.5863C268.99 71.6125 268.981 71.6387 268.972 71.6652C268.928 71.8079 268.833 71.9335 268.702 72.0225C268.572 72.1116 268.412 72.1592 268.249 72.1581C267.773 72.1614 267.297 72.1581 266.821 72.1581H259.571C259.621 72.2043 259.654 72.2351 259.687 72.2649C260.633 73.1144 261.579 73.9636 262.525 74.8125C262.953 75.1976 262.794 75.8211 262.229 75.9684C261.93 76.0463 261.667 75.9791 261.446 75.7792C260.895 75.282 260.345 74.7846 259.795 74.287C258.949 73.522 258.104 72.757 257.258 71.992C256.915 71.6818 256.913 71.2779 257.256 70.968C258.643 69.713 260.03 68.4582 261.419 67.2036C261.524 67.1046 261.66 67.0375 261.809 67.0118C261.957 66.986 262.111 67.0028 262.249 67.0598C262.388 67.1145 262.505 67.2063 262.585 67.323C262.664 67.4396 262.703 67.5756 262.695 67.7125C262.685 67.8974 262.598 68.0514 262.453 68.1811C261.53 69.0155 260.607 69.8509 259.685 70.6874C259.651 70.7182 259.613 70.7416 259.577 70.7687L259.589 70.7995H259.719C262.542 70.7995 265.366 70.7995 268.189 70.7995C268.519 70.7995 268.771 70.9157 268.924 71.1855C268.954 71.2464 268.979 71.309 269 71.3728V71.5863Z"
                fill="#A6AE9D"
              />
              <path
                d="M257.88 35.5C258.123 35.5 258.338 35.5467 258.525 35.64C258.712 35.73 258.867 35.8567 258.99 36.02C259.117 36.18 259.212 36.3667 259.275 36.58C259.338 36.79 259.37 37.0133 259.37 37.25C259.37 37.5733 259.313 37.8683 259.2 38.135C259.087 38.3983 258.92 38.6083 258.7 38.765C258.48 38.9217 258.207 39 257.88 39H256.66C256.59 39 256.53 38.9767 256.48 38.93C256.43 38.88 256.405 38.8183 256.405 38.745V35.755C256.405 35.6817 256.43 35.6217 256.48 35.575C256.53 35.525 256.59 35.5 256.66 35.5H257.88ZM257.83 38.52C258.067 38.52 258.258 38.4617 258.405 38.345C258.552 38.2283 258.658 38.075 258.725 37.885C258.795 37.6917 258.83 37.48 258.83 37.25C258.83 37.08 258.81 36.92 258.77 36.77C258.733 36.6167 258.673 36.4817 258.59 36.365C258.51 36.245 258.407 36.1517 258.28 36.085C258.157 36.015 258.007 35.98 257.83 35.98H256.885L256.93 35.935V38.57L256.9 38.52H257.83ZM261.093 39.05C260.816 39.05 260.576 38.9933 260.373 38.88C260.17 38.7633 260.011 38.605 259.898 38.405C259.788 38.2017 259.733 37.97 259.733 37.71C259.733 37.4167 259.791 37.1667 259.908 36.96C260.028 36.75 260.183 36.59 260.373 36.48C260.563 36.3667 260.765 36.31 260.978 36.31C261.141 36.31 261.296 36.3433 261.443 36.41C261.59 36.4733 261.72 36.5633 261.833 36.68C261.95 36.7933 262.041 36.9283 262.108 37.085C262.175 37.2383 262.21 37.4067 262.213 37.59C262.21 37.6567 262.183 37.7117 262.133 37.755C262.083 37.7983 262.025 37.82 261.958 37.82H260.013L259.893 37.395H261.773L261.678 37.485V37.36C261.671 37.2433 261.633 37.1417 261.563 37.055C261.493 36.965 261.406 36.8967 261.303 36.85C261.2 36.8 261.091 36.775 260.978 36.775C260.878 36.775 260.781 36.7917 260.688 36.825C260.598 36.855 260.516 36.905 260.443 36.975C260.373 37.045 260.316 37.1383 260.273 37.255C260.233 37.3683 260.213 37.51 260.213 37.68C260.213 37.8633 260.251 38.0233 260.328 38.16C260.405 38.2967 260.508 38.4033 260.638 38.48C260.768 38.5533 260.911 38.59 261.068 38.59C261.191 38.59 261.293 38.5783 261.373 38.555C261.453 38.5283 261.52 38.4967 261.573 38.46C261.626 38.4233 261.673 38.3883 261.713 38.355C261.763 38.325 261.813 38.31 261.863 38.31C261.923 38.31 261.973 38.3317 262.013 38.375C262.053 38.415 262.073 38.4633 262.073 38.52C262.073 38.5933 262.036 38.66 261.963 38.72C261.873 38.8067 261.748 38.8833 261.588 38.95C261.431 39.0167 261.266 39.05 261.093 39.05ZM263.218 38.745C263.218 38.8183 263.193 38.88 263.143 38.93C263.097 38.9767 263.038 39 262.968 39C262.898 39 262.838 38.9767 262.788 38.93C262.742 38.88 262.718 38.8183 262.718 38.745V35.555C262.718 35.4817 262.743 35.4217 262.793 35.375C262.843 35.325 262.903 35.3 262.973 35.3C263.047 35.3 263.105 35.325 263.148 35.375C263.195 35.4217 263.218 35.4817 263.218 35.555V38.745ZM265.039 39.05C264.762 39.05 264.522 38.9933 264.319 38.88C264.115 38.7633 263.957 38.605 263.844 38.405C263.734 38.2017 263.679 37.97 263.679 37.71C263.679 37.4167 263.737 37.1667 263.854 36.96C263.974 36.75 264.129 36.59 264.319 36.48C264.509 36.3667 264.71 36.31 264.924 36.31C265.087 36.31 265.242 36.3433 265.389 36.41C265.535 36.4733 265.665 36.5633 265.779 36.68C265.895 36.7933 265.987 36.9283 266.054 37.085C266.12 37.2383 266.155 37.4067 266.159 37.59C266.155 37.6567 266.129 37.7117 266.079 37.755C266.029 37.7983 265.97 37.82 265.904 37.82H263.959L263.839 37.395H265.719L265.624 37.485V37.36C265.617 37.2433 265.579 37.1417 265.509 37.055C265.439 36.965 265.352 36.8967 265.249 36.85C265.145 36.8 265.037 36.775 264.924 36.775C264.824 36.775 264.727 36.7917 264.634 36.825C264.544 36.855 264.462 36.905 264.389 36.975C264.319 37.045 264.262 37.1383 264.219 37.255C264.179 37.3683 264.159 37.51 264.159 37.68C264.159 37.8633 264.197 38.0233 264.274 38.16C264.35 38.2967 264.454 38.4033 264.584 38.48C264.714 38.5533 264.857 38.59 265.014 38.59C265.137 38.59 265.239 38.5783 265.319 38.555C265.399 38.5283 265.465 38.4967 265.519 38.46C265.572 38.4233 265.619 38.3883 265.659 38.355C265.709 38.325 265.759 38.31 265.809 38.31C265.869 38.31 265.919 38.3317 265.959 38.375C265.999 38.415 266.019 38.4633 266.019 38.52C266.019 38.5933 265.982 38.66 265.909 38.72C265.819 38.8067 265.694 38.8833 265.534 38.95C265.377 39.0167 265.212 39.05 265.039 39.05ZM266.589 36.4H267.764C267.83 36.4 267.885 36.4233 267.929 36.47C267.975 36.5133 267.999 36.5683 267.999 36.635C267.999 36.6983 267.975 36.7517 267.929 36.795C267.885 36.8383 267.83 36.86 267.764 36.86H266.589C266.522 36.86 266.465 36.8383 266.419 36.795C266.375 36.7483 266.354 36.6933 266.354 36.63C266.354 36.5633 266.375 36.5083 266.419 36.465C266.465 36.4217 266.522 36.4 266.589 36.4ZM267.114 35.75C267.187 35.75 267.247 35.775 267.294 35.825C267.34 35.8717 267.364 35.9317 267.364 36.005V38.325C267.364 38.385 267.374 38.4333 267.394 38.47C267.414 38.5067 267.44 38.5317 267.474 38.545C267.51 38.5583 267.547 38.565 267.584 38.565C267.62 38.565 267.652 38.5583 267.679 38.545C267.709 38.5317 267.744 38.525 267.784 38.525C267.824 38.525 267.86 38.5433 267.894 38.58C267.927 38.6167 267.944 38.6667 267.944 38.73C267.944 38.81 267.9 38.875 267.814 38.925C267.727 38.975 267.634 39 267.534 39C267.477 39 267.41 38.995 267.334 38.985C267.257 38.975 267.182 38.95 267.109 38.91C267.039 38.87 266.98 38.8067 266.934 38.72C266.887 38.63 266.864 38.505 266.864 38.345V36.005C266.864 35.9317 266.887 35.8717 266.934 35.825C266.984 35.775 267.044 35.75 267.114 35.75ZM269.653 39.05C269.376 39.05 269.136 38.9933 268.933 38.88C268.73 38.7633 268.571 38.605 268.458 38.405C268.348 38.2017 268.293 37.97 268.293 37.71C268.293 37.4167 268.351 37.1667 268.468 36.96C268.588 36.75 268.743 36.59 268.933 36.48C269.123 36.3667 269.325 36.31 269.538 36.31C269.701 36.31 269.856 36.3433 270.003 36.41C270.15 36.4733 270.28 36.5633 270.393 36.68C270.51 36.7933 270.601 36.9283 270.668 37.085C270.735 37.2383 270.77 37.4067 270.773 37.59C270.77 37.6567 270.743 37.7117 270.693 37.755C270.643 37.7983 270.585 37.82 270.518 37.82H268.573L268.453 37.395H270.333L270.238 37.485V37.36C270.231 37.2433 270.193 37.1417 270.123 37.055C270.053 36.965 269.966 36.8967 269.863 36.85C269.76 36.8 269.651 36.775 269.538 36.775C269.438 36.775 269.341 36.7917 269.248 36.825C269.158 36.855 269.076 36.905 269.003 36.975C268.933 37.045 268.876 37.1383 268.833 37.255C268.793 37.3683 268.773 37.51 268.773 37.68C268.773 37.8633 268.811 38.0233 268.888 38.16C268.965 38.2967 269.068 38.4033 269.198 38.48C269.328 38.5533 269.471 38.59 269.628 38.59C269.751 38.59 269.853 38.5783 269.933 38.555C270.013 38.5283 270.08 38.4967 270.133 38.46C270.186 38.4233 270.233 38.3883 270.273 38.355C270.323 38.325 270.373 38.31 270.423 38.31C270.483 38.31 270.533 38.3317 270.573 38.375C270.613 38.415 270.633 38.4633 270.633 38.52C270.633 38.5933 270.596 38.66 270.523 38.72C270.433 38.8067 270.308 38.8833 270.148 38.95C269.991 39.0167 269.826 39.05 269.653 39.05Z"
                fill="#A6AE9D"
              />
              <rect
                x="254.5"
                y="0.5"
                width="18"
                height="14.381"
                rx="4.5"
                stroke="#A6AE9D"
              />
              <rect
                x="254.5"
                y="30.5"
                width="18"
                height="14.381"
                rx="4.5"
                stroke="#A6AE9D"
              />
              <rect
                x="254.5"
                y="63.5"
                width="18"
                height="14.381"
                rx="4.5"
                stroke="#A6AE9D"
              />
              <rect
                x="246.5"
                y="106.5"
                width="18.931"
                height="16"
                rx="4.5"
                transform="rotate(-180 246.5 106.5)"
                stroke="#A6AE9D"
              />
              <rect
                x="246.431"
                y="127.883"
                width="18.931"
                height="16"
                rx="4.5"
                transform="rotate(-180 246.431 127.883)"
                stroke="#A6AE9D"
              />
              <rect
                x="222.431"
                y="127.883"
                width="18.931"
                height="16"
                rx="4.5"
                transform="rotate(-180 222.431 127.883)"
                stroke="#A6AE9D"
              />
              <rect
                x="270.431"
                y="127.883"
                width="18.931"
                height="16"
                rx="4.5"
                transform="rotate(-180 270.431 127.883)"
                stroke="#A6AE9D"
              />
              <rect
                x="181.5"
                y="149.5"
                width="89"
                height="17"
                rx="4.5"
                stroke="#A6AE9D"
              />
              <path
                d="M269 3.39063V11.5976C268.834 11.9329 268.709 12 268.273 12H263.557C261.903 12 260.249 12 258.594 12C258.241 12 258.001 11.7924 258.001 11.4907C257.999 10.1271 258 8.76238 258.003 7.39656C258.004 7.31432 258.025 7.23322 258.066 7.15882C258.184 6.95328 258.392 6.88521 258.649 6.88555C260.023 6.8879 261.399 6.88555 262.774 6.88857C262.882 6.88857 262.912 6.86711 262.911 6.77288C262.907 5.70795 262.906 4.64312 262.909 3.57841C262.907 3.5081 262.914 3.43777 262.93 3.36884C262.996 3.13412 263.223 3 263.542 3H268.3C268.354 3 268.408 3 268.461 3.00235C268.701 3.02012 268.867 3.12608 268.96 3.31519C268.972 3.34302 268.986 3.36649 269 3.39063ZM263.833 7.52029H259.718C259.33 7.52029 259.119 7.69867 259.119 8.02895C259.119 8.58556 259.119 9.14239 259.119 9.69945C259.119 10.0761 259.119 10.4526 259.119 10.8288C259.119 11.03 259.212 11.1889 259.433 11.269C259.53 11.3 259.632 11.3146 259.736 11.3119C262.404 11.3119 265.072 11.3111 267.739 11.3093C267.85 11.3137 267.961 11.2954 268.062 11.256C268.267 11.1634 268.344 11.0088 268.344 10.816C268.344 8.56388 268.344 6.31172 268.344 4.05957C268.344 4.03811 268.344 4.01665 268.34 3.99553C268.317 3.74707 268.111 3.57304 267.821 3.57237C266.665 3.56991 265.508 3.56991 264.352 3.57237C264.238 3.57094 264.127 3.60265 264.037 3.6623C263.946 3.72195 263.883 3.806 263.856 3.90064C263.839 3.96671 263.832 4.03427 263.835 4.10182C263.835 5.20051 263.835 6.29909 263.835 7.39756L263.833 7.52029Z"
                fill="#A6AE9D"
              />
              <path
                d="M264.32 7.77651V4.29494C264.32 4.08207 264.412 4 264.653 4H267.673C267.906 4 268 4.08463 268 4.2927V10.7079C268 10.9157 267.906 11 267.673 11H260.32C260.092 11 260 10.9173 260 10.7131V8.06343C260 7.8605 260.094 7.77651 260.324 7.77651H264.32ZM261.813 9.29801C261.885 9.13771 261.952 8.98576 262.016 8.83316C262.02 8.80698 262.02 8.78023 262.013 8.75429C261.983 8.75581 261.954 8.76234 261.927 8.77353C261.551 9.03 261.178 9.28647 260.803 9.54294C260.74 9.58557 260.745 9.61731 260.805 9.65771C260.958 9.75901 261.107 9.86384 261.258 9.96707C261.474 10.1152 261.689 10.2639 261.905 10.4095C261.939 10.4254 261.975 10.4367 262.013 10.4431C262.015 10.4082 262.011 10.3731 262.003 10.339C261.946 10.2021 261.884 10.0671 261.823 9.93117C261.811 9.90488 261.802 9.87763 261.787 9.83852H261.907C262.418 9.83852 262.93 9.83852 263.441 9.83852C263.67 9.83852 263.785 9.73369 263.785 9.52915C263.785 9.16368 263.785 8.79821 263.785 8.43275C263.785 8.26796 263.662 8.15448 263.491 8.15319C263.319 8.15191 263.195 8.26316 263.193 8.42794C263.19 8.59753 263.193 8.76712 263.193 8.93671V9.29961L261.813 9.29801Z"
                fill="#A6AE9D"
              />
</svg>